<svg width="334" height="50" viewBox="0 0 334 50" fill="none" xmlns="http://www.w3.org/2000/svg">
<path d="M17.6953 11.4961C17.7148 11.5938 17.7539 11.6816 17.8125 11.7598C17.8711 11.8184 17.9297 11.8672 17.9883 11.9062C18.0078 12.0625 18.0176 12.2285 18.0176 12.4043C18.0371 12.5605 18.0664 12.7168 18.1055 12.873C18.1055 12.9512 18.1055 13.0391 18.1055 13.1367C18.1055 13.2148 18.1348 13.2832 18.1934 13.3418C18.1348 14.0254 18.0371 14.5918 17.9004 15.041C17.7832 15.4707 17.6758 15.9492 17.5781 16.4766C17.5586 16.5742 17.5293 16.6719 17.4902 16.7695C17.4707 16.8477 17.4609 16.9355 17.4609 17.0332C17.4414 17.1113 17.4316 17.1797 17.4316 17.2383C17.4512 17.2969 17.4512 17.3652 17.4316 17.4434C17.3926 17.5605 17.334 17.6875 17.2559 17.8242C17.1777 17.9609 17.0996 18.1074 17.0215 18.2637C16.709 18.8301 16.3574 19.3672 15.9668 19.875C15.5957 20.3828 15.127 20.7734 14.5605 21.0469C14.3457 21.1445 14.1602 21.2422 14.0039 21.3398C13.8672 21.418 13.6914 21.4766 13.4766 21.5156C13.3398 21.5938 13.1738 21.6816 12.9785 21.7793C12.8027 21.8574 12.627 21.916 12.4512 21.9551C12.373 21.9941 12.2949 22.0137 12.2168 22.0137C12.1387 22.0137 12.0605 22.0234 11.9824 22.043C11.8848 22.082 11.7969 22.1211 11.7188 22.1602C11.6602 22.1797 11.6016 22.1992 11.543 22.2188C11.3867 22.2578 11.2695 22.2773 11.1914 22.2773C11.0547 22.2578 10.957 22.1797 10.8984 22.043C10.8398 21.8867 10.8105 21.7305 10.8105 21.5742C10.7324 21.4961 10.6445 21.4277 10.5469 21.3691C10.4492 21.3105 10.3809 21.2031 10.3418 21.0469C10.2832 20.832 10.2441 20.7148 10.2246 20.6953C10.2051 20.6758 10.1855 20.6465 10.166 20.6074C10.0684 20.334 10.0293 20.0312 10.0488 19.6992C10.0879 19.3477 10.166 19.0645 10.2832 18.8496C10.3223 18.752 10.3809 18.6836 10.459 18.6445C10.5371 18.5859 10.5859 18.5078 10.6055 18.4102C10.7617 18.3125 10.8984 18.2148 11.0156 18.1172C11.1328 18 11.2695 17.8926 11.4258 17.7949C11.6211 17.4629 11.8457 17.209 12.0996 17.0332C12.3535 16.8574 12.5977 16.6719 12.832 16.4766C12.9102 16.418 12.9688 16.3496 13.0078 16.2715C13.0664 16.1934 13.1445 16.1152 13.2422 16.0371C13.3008 15.9785 13.3691 15.9297 13.4473 15.8906C13.5254 15.832 13.5938 15.7832 13.6523 15.7441C13.6914 15.7051 13.7305 15.666 13.7695 15.627C13.8086 15.5879 13.8477 15.5488 13.8867 15.5098C13.9648 15.4707 14.043 15.4512 14.1211 15.4512C14.1992 15.4512 14.2773 15.4316 14.3555 15.3926C14.6289 15.3535 14.7656 15.373 14.7656 15.4512C14.7656 15.5098 14.7656 15.5781 14.7656 15.6562C14.668 15.7148 14.5508 15.7734 14.4141 15.832C14.2773 15.8711 14.1406 15.9102 14.0039 15.9492C13.9648 16.1055 13.877 16.2227 13.7402 16.3008C13.623 16.3789 13.5156 16.4863 13.418 16.623C13.3398 16.7207 13.2715 16.8184 13.2129 16.916C13.1738 16.9941 13.0859 17.0527 12.9492 17.0918C12.8516 17.3262 12.7246 17.5312 12.5684 17.707C12.4316 17.8633 12.2949 18.0293 12.1582 18.2051C12.1582 18.4199 12.1094 18.6055 12.0117 18.7617C11.9336 18.8984 11.8457 19.0449 11.748 19.2012C11.709 19.2793 11.6699 19.3574 11.6309 19.4355C11.5918 19.5137 11.5723 19.5723 11.5723 19.6113C11.5918 19.6504 11.6113 19.709 11.6309 19.7871C11.6699 19.8457 11.709 19.9043 11.748 19.9629C11.7871 20.0215 11.8262 20.0703 11.8652 20.1094C11.9238 20.1484 11.9629 20.1973 11.9824 20.2559C12.4512 19.9629 12.9102 19.6699 13.3594 19.377C13.8281 19.084 14.2285 18.7324 14.5605 18.3223C14.6582 18.1465 14.7461 17.9805 14.8242 17.8242C14.9219 17.6484 15.0195 17.4629 15.1172 17.2676C15.1563 17.0723 15.2148 16.8867 15.293 16.7109C15.3711 16.5352 15.459 16.3594 15.5566 16.1836C15.6543 15.9883 15.7422 15.793 15.8203 15.5977C15.8984 15.4023 15.9473 15.1973 15.9668 14.9824C15.9863 14.8262 15.9863 14.6602 15.9668 14.4844C15.9668 14.2891 15.9961 14.1426 16.0547 14.0449C16.0156 13.9473 16.0156 13.8203 16.0547 13.6641C16.0938 13.4883 16.1035 13.3223 16.084 13.166C15.9473 12.873 15.8105 12.707 15.6738 12.668C15.5371 12.6094 15.3906 12.5605 15.2344 12.5215C15.0781 12.6191 14.9121 12.7266 14.7363 12.8438C14.5605 12.9609 14.3945 13.0879 14.2383 13.2246C14.1211 13.3418 13.9941 13.459 13.8574 13.5762C13.7402 13.6934 13.6426 13.8301 13.5645 13.9863C13.3105 14.2598 13.1055 14.5039 12.9492 14.7188C12.793 14.9141 12.6367 15.1191 12.4805 15.334C12.1484 15.5488 11.8457 15.7832 11.5723 16.0371C11.2988 16.291 10.9961 16.5254 10.6641 16.7402C10.4102 16.9355 10.1562 17.1406 9.90234 17.3555C9.66797 17.5508 9.44336 17.7559 9.22852 17.9707C9.0332 18.1855 8.82812 18.3906 8.61328 18.5859C8.39844 18.7617 8.20312 18.957 8.02734 19.1719C7.87109 19.3867 7.70508 19.6113 7.5293 19.8457C7.35352 20.0605 7.17773 20.2754 7.00195 20.4902C6.9043 20.5879 6.81641 20.6953 6.73828 20.8125C6.66016 20.9297 6.57227 21.0469 6.47461 21.1641C6.37695 21.2617 6.2793 21.3691 6.18164 21.4863C6.10352 21.6035 6.02539 21.7109 5.94727 21.8086C5.88867 21.9062 5.83984 22.0137 5.80078 22.1309C5.76172 22.2285 5.71289 22.3262 5.6543 22.4238C5.45898 22.6582 5.26367 22.9023 5.06836 23.1562C4.89258 23.3906 4.73633 23.6641 4.59961 23.9766C4.36523 24.2891 4.17969 24.6016 4.04297 24.9141C3.92578 25.207 3.78906 25.5 3.63281 25.793C3.59375 26.0664 3.51562 26.3105 3.39844 26.5254C3.30078 26.7402 3.23242 26.9844 3.19336 27.2578C3.17383 27.3945 3.13477 27.5312 3.07617 27.668C3.03711 27.7852 3.00781 27.9219 2.98828 28.0781C2.94922 28.2148 2.92969 28.3613 2.92969 28.5176C2.92969 28.6543 2.91016 28.7812 2.87109 28.8984C2.75391 29.1523 2.69531 29.3379 2.69531 29.4551C2.69531 29.5527 2.64648 29.6309 2.54883 29.6895C2.60742 29.8457 2.65625 29.9824 2.69531 30.0996C2.75391 30.2168 2.83203 30.334 2.92969 30.4512C2.96875 30.5293 3.02734 30.5977 3.10547 30.6562C3.18359 30.7148 3.24219 30.7832 3.28125 30.8613C3.35938 31.0566 3.41797 31.1738 3.45703 31.2129C3.51562 31.252 3.58398 31.3008 3.66211 31.3594C3.7207 31.3984 3.78906 31.4473 3.86719 31.5059C3.96484 31.5645 4.05273 31.6035 4.13086 31.623C4.22852 31.6621 4.32617 31.6816 4.42383 31.6816C4.54102 31.6621 4.64844 31.6621 4.74609 31.6816C4.84375 31.6816 4.93164 31.6914 5.00977 31.7109C5.08789 31.7109 5.17578 31.7012 5.27344 31.6816C5.42969 31.6426 5.61523 31.6035 5.83008 31.5645C6.04492 31.5059 6.24023 31.457 6.41602 31.418C6.68945 31.3398 6.95312 31.2617 7.20703 31.1836C7.48047 31.1055 7.73438 31.0176 7.96875 30.9199C8.22266 30.8223 8.42773 30.6855 8.58398 30.5098C8.74023 30.334 8.91602 30.1973 9.11133 30.0996C9.42383 29.8652 9.63867 29.6797 9.75586 29.543C9.89258 29.3867 10.0391 29.2598 10.1953 29.1621C10.332 28.9863 10.4102 28.8984 10.4297 28.8984C10.4492 28.8984 10.4688 28.8887 10.4883 28.8691C10.625 28.7129 10.752 28.5762 10.8691 28.459C11.0059 28.3223 11.1426 28.1758 11.2793 28.0195C11.4941 27.9219 11.6699 27.7949 11.8066 27.6387C11.9629 27.5801 12.0898 27.502 12.1875 27.4043C12.3047 27.3066 12.4219 27.209 12.5391 27.1113C12.6953 26.9941 12.8027 26.9062 12.8613 26.8477C12.9395 26.7695 13.0078 26.6914 13.0664 26.6133C13.1445 26.5352 13.2227 26.4473 13.3008 26.3496C13.3398 26.3105 13.3984 26.2715 13.4766 26.2324C13.5547 26.1738 13.6328 26.0957 13.7109 25.998C13.75 25.9395 13.7891 25.8613 13.8281 25.7637C13.8672 25.666 13.9355 25.6172 14.0332 25.6172C14.1504 25.5977 14.2773 25.6562 14.4141 25.793C14.5508 25.9102 14.6191 26.0371 14.6191 26.1738C14.4434 26.4473 14.3457 26.6133 14.3262 26.6719C14.1895 26.8672 14.043 27.0527 13.8867 27.2285C13.7305 27.4043 13.5742 27.5996 13.418 27.8145C13.2617 27.9902 13.1055 28.1758 12.9492 28.3711C12.793 28.5469 12.6465 28.7422 12.5098 28.957C12.373 29.1719 12.2168 29.3672 12.041 29.543C11.8848 29.6992 11.7188 29.875 11.543 30.0703C11.2891 30.3438 11.0352 30.5977 10.7812 30.832C10.5469 31.0664 10.3223 31.3496 10.1074 31.6816C10.0098 31.7793 9.91211 31.877 9.81445 31.9746C9.7168 32.0527 9.61914 32.1406 9.52148 32.2383C9.42383 32.2969 9.32617 32.3652 9.22852 32.4434C9.15039 32.502 9.0625 32.5605 8.96484 32.6191C8.57422 32.7559 8.17383 32.9316 7.76367 33.1465C7.37305 33.3809 6.93359 33.5664 6.44531 33.7031C6.23047 33.7617 6.00586 33.8301 5.77148 33.9082C5.55664 33.9863 5.3125 34.0156 5.03906 33.9961C5 33.9766 4.95117 33.9668 4.89258 33.9668C4.83398 33.9668 4.77539 33.957 4.7168 33.9375C4.59961 33.918 4.47266 33.8789 4.33594 33.8203C4.21875 33.7617 4.08203 33.7227 3.92578 33.7031C3.82812 33.7031 3.74023 33.7129 3.66211 33.7324C3.58398 33.7715 3.49609 33.791 3.39844 33.791C2.96875 33.5176 2.61719 33.2832 2.34375 33.0879C2.08984 32.9121 1.85547 32.6973 1.64062 32.4434C1.48438 32.1895 1.37695 32.0332 1.31836 31.9746C1.25977 31.8965 1.19141 31.8086 1.11328 31.7109C1.03516 31.5938 0.957031 31.4766 0.878906 31.3594C0.800781 31.2227 0.722656 31.0762 0.644531 30.9199C0.644531 30.8418 0.615234 30.7734 0.556641 30.7148C0.517578 30.6562 0.478516 30.5879 0.439453 30.5098C0.341797 30.1777 0.292969 29.8359 0.292969 29.4844C0.292969 29.1133 0.302734 28.752 0.322266 28.4004C0.341797 28.3027 0.341797 28.2148 0.322266 28.1367C0.302734 28.0391 0.292969 27.9414 0.292969 27.8438C0.292969 27.6875 0.322266 27.5215 0.380859 27.3457C0.439453 27.1699 0.488281 27.0039 0.527344 26.8477C0.644531 26.418 0.771484 26.0176 0.908203 25.6465C1.06445 25.2559 1.24023 24.8945 1.43555 24.5625C1.61133 24.3281 1.73828 24.1035 1.81641 23.8887C1.91406 23.6738 2.01172 23.4492 2.10938 23.2148C2.20703 23 2.30469 22.7949 2.40234 22.5996C2.5 22.3848 2.60742 22.1699 2.72461 21.9551C2.82227 21.7598 2.91992 21.5645 3.01758 21.3691C3.13477 21.1738 3.28125 20.998 3.45703 20.8418C3.51562 20.627 3.60352 20.4512 3.7207 20.3145C3.83789 20.1582 3.95508 20.002 4.07227 19.8457C4.26758 19.5723 4.46289 19.3184 4.6582 19.084C4.87305 18.8496 5.05859 18.5859 5.21484 18.293C5.37109 18.1758 5.50781 18.0488 5.625 17.9121C5.76172 17.7754 5.88867 17.6387 6.00586 17.502C6.14258 17.3457 6.26953 17.209 6.38672 17.0918C6.52344 16.9551 6.66016 16.8086 6.79688 16.6523C6.875 16.5938 6.94336 16.5352 7.00195 16.4766C7.08008 16.3984 7.14844 16.3301 7.20703 16.2715C7.34375 16.1152 7.48047 15.9785 7.61719 15.8613C7.75391 15.7441 7.90039 15.627 8.05664 15.5098C8.23242 15.4316 8.39844 15.3242 8.55469 15.1875C8.73047 15.0117 8.89648 14.8359 9.05273 14.6602C9.22852 14.4648 9.4043 14.2891 9.58008 14.1328C9.85352 13.8594 10.1367 13.5957 10.4297 13.3418C10.7227 13.0684 11.0352 12.8242 11.3672 12.6094C11.5625 12.3945 11.7969 12.2187 12.0703 12.082C12.3438 11.9258 12.6172 11.7793 12.8906 11.6426C13.0469 11.584 13.1738 11.5352 13.2715 11.4961C13.3887 11.4375 13.5156 11.3691 13.6523 11.291C13.8672 11.1543 14.0234 11.0859 14.1211 11.0859C14.2188 11.0664 14.2969 11.0176 14.3555 10.9395C14.5898 10.9395 14.7949 10.9102 14.9707 10.8516C15.1465 10.7734 15.3418 10.7637 15.5566 10.8223C15.6348 10.8418 15.7031 10.8711 15.7617 10.9102C15.8203 10.9297 15.8789 10.9492 15.9375 10.9688C16.3086 11.0078 16.5723 11.0664 16.7285 11.1445C16.8848 11.2227 17.0312 11.3008 17.168 11.3789C17.3242 11.4375 17.5 11.4766 17.6953 11.4961ZM45.3293 24.5332C45.427 24.5527 45.4855 24.5918 45.5051 24.6504C45.5441 24.709 45.6027 24.7383 45.6809 24.7383C45.7004 24.8359 45.6906 24.9141 45.6516 24.9727C45.632 25.0312 45.6027 25.0898 45.5637 25.1484C45.5246 25.1875 45.4855 25.2363 45.4465 25.2949C45.427 25.334 45.427 25.3926 45.4465 25.4707C45.2707 25.5879 45.0559 25.666 44.802 25.7051C44.548 25.7246 44.3527 25.8223 44.216 25.998C43.884 26.1543 43.5227 26.2617 43.132 26.3203C42.7609 26.3594 42.3703 26.418 41.9602 26.4961C41.7648 26.6328 41.6281 26.7109 41.55 26.7305C41.4914 26.75 41.423 26.7793 41.3449 26.8184C41.1496 26.7402 40.9445 26.7012 40.7297 26.7012C40.5148 26.7012 40.3 26.6719 40.0852 26.6133C39.968 26.6523 39.8508 26.6719 39.7336 26.6719C39.6359 26.6719 39.5285 26.6914 39.4113 26.7305C39.3332 26.8867 39.2941 27.0625 39.2941 27.2578C39.2941 27.4531 39.2648 27.6289 39.2062 27.7852L39.0305 28.1367C39.0109 28.2344 38.9914 28.332 38.9719 28.4297C38.9719 28.5078 38.9523 28.5957 38.9133 28.6934C38.8742 28.752 38.8254 28.8203 38.7668 28.8984C38.7277 28.9766 38.7082 29.0645 38.7082 29.1621C38.5715 29.3184 38.4738 29.5039 38.4152 29.7188C38.3566 29.9141 38.2492 30.0801 38.093 30.2168C38.0344 30.4121 37.9367 30.5684 37.8 30.6855C37.6828 30.8027 37.5656 30.9395 37.4484 31.0957C37.2336 31.3887 37.0383 31.6426 36.8625 31.8574C36.7062 32.0723 36.4914 32.2578 36.218 32.4141C36.1203 32.5703 36.0031 32.6777 35.8664 32.7363C35.7492 32.8535 35.6711 32.9512 35.632 33.0293C35.4562 33.127 35.2609 33.2441 35.0461 33.3809C34.8312 33.5176 34.6066 33.6152 34.3723 33.6738C34.0402 33.752 33.718 33.7422 33.4055 33.6445C33.093 33.5469 32.8 33.4102 32.5266 33.2344C32.3508 33.2539 32.2043 33.2148 32.0871 33.1172C31.9895 33.0391 31.8625 32.9805 31.7062 32.9414C31.4914 32.7461 31.257 32.5703 31.0031 32.4141C30.7492 32.2578 30.5637 32.043 30.4465 31.7695C30.4074 31.5547 30.3684 31.3398 30.3293 31.125C30.2707 30.9102 30.2219 30.7148 30.1828 30.5391C30.1437 30.3633 30.1437 30.1777 30.1828 29.9824C30.2023 29.7871 30.2023 29.5918 30.1828 29.3965C30.1828 29.1816 30.1828 29.0059 30.1828 28.8691C30.1633 28.7129 30.2023 28.5273 30.3 28.3125C30.4172 28.0586 30.4953 27.8535 30.5344 27.6973C30.5734 27.5215 30.6125 27.375 30.6516 27.2578C30.7102 27.1602 30.7687 27.0527 30.8273 26.9355C30.8859 26.8184 30.9543 26.7109 31.0324 26.6133C31.1496 26.4375 31.2863 26.2617 31.4426 26.0859C31.5988 25.9102 31.7551 25.7441 31.9113 25.5879C32.0285 25.4316 32.1359 25.3047 32.2336 25.207C32.3898 25.0508 32.5559 24.9043 32.7316 24.7676C32.9074 24.6309 33.0832 24.4746 33.259 24.2988C33.298 24.2402 33.3469 24.1914 33.4055 24.1523C33.4641 24.1133 33.5227 24.0742 33.5812 24.0352C33.7766 23.918 33.9523 23.8203 34.1086 23.7422C34.2844 23.6641 34.4797 23.5762 34.6945 23.4785C34.8508 23.4004 34.9973 23.3516 35.134 23.332C35.2902 23.293 35.466 23.2539 35.6613 23.2148C35.798 23.2148 35.9152 23.2148 36.0129 23.2148C36.1105 23.2148 36.2082 23.1953 36.3059 23.1562C36.2473 23 36.3156 22.8926 36.5109 22.834C36.7062 22.7754 36.8527 22.7559 36.9504 22.7754C37.1457 22.7754 37.302 22.8242 37.4191 22.9219C37.5363 23 37.6437 23.0977 37.7414 23.2148C37.9562 23.3711 38.1711 23.5762 38.3859 23.8301C38.425 23.8691 38.4738 23.8984 38.5324 23.918C38.591 23.9375 38.6398 23.9668 38.6789 24.0059C38.757 24.1035 38.8059 24.2109 38.8254 24.3281C38.8645 24.4453 38.9328 24.5527 39.0305 24.6504C39.0891 24.6895 39.1477 24.7383 39.2062 24.7969C39.2648 24.8555 39.3039 24.9336 39.3234 25.0312C39.4211 25.0703 39.509 25.1094 39.5871 25.1484C39.6848 25.168 39.7824 25.1875 39.8801 25.207C39.9777 25.2461 40.0754 25.2559 40.173 25.2363C40.2902 25.2168 40.4172 25.2168 40.5539 25.2363C40.6516 25.2559 40.7395 25.2852 40.8176 25.3242C40.8957 25.3438 40.9836 25.3535 41.0812 25.3535C41.2375 25.334 41.3937 25.2949 41.55 25.2363C41.7258 25.1777 41.9211 25.168 42.1359 25.207C42.4289 25.2852 42.7316 25.2559 43.0441 25.1191C43.3762 24.9824 43.7082 24.8945 44.0402 24.8555C44.1184 24.8555 44.1867 24.8555 44.2453 24.8555C44.3039 24.8359 44.3723 24.8262 44.4504 24.8262C44.548 24.748 44.675 24.6895 44.8312 24.6504C44.9875 24.6113 45.1535 24.5723 45.3293 24.5332ZM36.9504 25.4121C36.7551 25.2363 36.6379 25.1289 36.5988 25.0898C36.5793 25.0312 36.55 24.9922 36.5109 24.9727C36.4328 24.8945 36.3352 24.8457 36.218 24.8262C36.1008 24.8066 35.9934 24.7871 35.8957 24.7676C35.5832 24.709 35.3195 24.748 35.1047 24.8848C34.9094 25.002 34.7141 25.1191 34.5187 25.2363C34.2062 25.4316 33.9328 25.6758 33.6984 25.9688C33.6398 26.0664 33.5715 26.1738 33.4934 26.291C33.4348 26.4082 33.3859 26.5352 33.3469 26.6719C33.2687 26.8281 33.2004 26.9746 33.1418 27.1113C33.0832 27.2285 33.0344 27.375 32.9953 27.5508C32.8977 27.7461 32.8391 27.9121 32.8195 28.0488C32.8 28.166 32.7805 28.2734 32.7609 28.3711C32.7414 28.5664 32.7023 28.7715 32.6437 28.9863C32.6047 29.2012 32.5852 29.3867 32.5852 29.543C32.6047 29.6016 32.634 29.6797 32.673 29.7773C32.7121 29.875 32.7512 29.9434 32.7902 29.9824C32.8293 30.0801 32.8684 30.1875 32.9074 30.3047C32.966 30.4219 33.0148 30.5098 33.0539 30.5684C33.1516 30.7051 33.2785 30.793 33.4348 30.832C33.591 30.8711 33.7668 30.9199 33.9621 30.9785C34.177 31.0957 34.3234 31.1445 34.4016 31.125C34.4797 31.1055 34.5383 31.0957 34.5773 31.0957C34.8312 31.0566 35.0559 30.9492 35.2512 30.7734C35.4465 30.5977 35.6418 30.4609 35.8371 30.3633C35.9934 30.1289 36.1594 29.8848 36.3352 29.6309C36.5305 29.3574 36.7062 29.084 36.8625 28.8105C36.9211 28.7324 36.9699 28.6445 37.009 28.5469C37.048 28.4492 37.0871 28.3613 37.1262 28.2832C37.2629 28.127 37.3215 28.0391 37.302 28.0195C37.302 28 37.3117 27.9707 37.3312 27.9316C37.468 27.6387 37.5266 27.4141 37.507 27.2578C37.4875 27.1016 37.4875 26.9453 37.507 26.7891C37.4094 26.5742 37.3215 26.3398 37.2434 26.0859C37.1848 25.832 37.0871 25.6074 36.9504 25.4121ZM69.4184 26.2617C69.6137 26.4961 69.7016 26.6621 69.682 26.7598C69.682 26.8574 69.682 26.9648 69.682 27.082C69.5844 27.1992 69.5062 27.3262 69.4477 27.4629C69.3891 27.5801 69.3012 27.6875 69.184 27.7852C69.0863 27.8633 68.9789 27.9219 68.8617 27.9609C68.7641 27.9805 68.6762 28.0391 68.598 28.1367C68.4809 28.1758 68.3832 28.2246 68.3051 28.2832C68.227 28.3418 68.1098 28.3613 67.9535 28.3418C67.4848 28.8105 67.0648 29.1914 66.6937 29.4844C66.3422 29.7773 65.9711 30.0605 65.5805 30.334C65.2875 30.5879 64.975 30.8223 64.643 31.0371C64.3305 31.252 64.0082 31.4668 63.6762 31.6816C63.5785 31.7793 63.4906 31.877 63.4125 31.9746C63.3344 32.0527 63.2367 32.1211 63.1195 32.1797C62.8852 32.4141 62.641 32.6289 62.3871 32.8242C62.1527 33 61.9281 33.1855 61.7133 33.3809C61.4984 33.5371 61.2641 33.6445 61.0102 33.7031C60.7758 33.7617 60.5512 33.8398 60.3363 33.9375C59.9652 34.0938 59.682 34.123 59.4867 34.0254C59.2719 34.0645 59.0863 34.0938 58.9301 34.1133C58.7934 34.1523 58.6176 34.1426 58.4027 34.084C58.3441 34.0645 58.2855 34.0352 58.227 33.9961C58.1684 33.957 58.1 33.918 58.0219 33.8789C57.8266 33.8008 57.6703 33.7129 57.5531 33.6152C57.4555 33.5371 57.3676 33.459 57.2895 33.3809C57.2309 33.3223 57.1625 33.2344 57.0844 33.1172C57.0062 33.0195 56.9477 32.9316 56.9086 32.8535C56.8109 32.6973 56.7523 32.5117 56.7328 32.2969C56.6937 32.0625 56.6449 31.8379 56.5863 31.623C56.5473 31.4082 56.4887 31.1934 56.4105 30.9785C56.3324 30.7637 56.3031 30.5391 56.3227 30.3047C56.3422 30.1484 56.3812 30.002 56.4398 29.8652C56.4789 29.709 56.518 29.5527 56.557 29.3965C56.6742 29.123 56.7719 28.8691 56.85 28.6348C56.9281 28.4004 57.016 28.1758 57.1137 27.9609C57.1723 27.8633 57.2309 27.7852 57.2895 27.7266C57.3676 27.668 57.4359 27.5898 57.4945 27.4922C57.5336 27.4531 57.5531 27.3945 57.5531 27.3164C57.5727 27.2383 57.602 27.1699 57.641 27.1113C57.7973 26.9355 57.9633 26.7598 58.1391 26.584C58.3148 26.3887 58.4711 26.1836 58.6078 25.9688C58.7055 25.832 58.8031 25.7148 58.9008 25.6172C59.018 25.5 59.1254 25.373 59.223 25.2363C59.3402 25.0801 59.4184 24.9922 59.4574 24.9727C59.516 24.9336 59.5648 24.8848 59.6039 24.8262C59.7211 24.709 59.8285 24.5918 59.9262 24.4746C60.0238 24.3379 60.1215 24.2012 60.2191 24.0645C60.3559 23.9277 60.4926 23.7812 60.6293 23.625C60.7855 23.4688 60.9418 23.3418 61.098 23.2441C61.2738 23.1465 61.4496 23.0586 61.6254 22.9805C61.8207 22.9023 62.0258 22.8145 62.2406 22.7168C62.3383 22.6777 62.4262 22.6289 62.5043 22.5703C62.602 22.5117 62.6996 22.4629 62.7973 22.4238C62.9145 22.3848 63.0219 22.3555 63.1195 22.3359C63.2172 22.3164 63.3051 22.2676 63.3832 22.1895C63.5004 22.209 63.6078 22.1895 63.7055 22.1309C63.8031 22.0723 63.9008 22.0234 63.9984 21.9844C64.0961 21.9648 64.184 21.9648 64.2621 21.9844C64.3598 22.0039 64.4379 21.9844 64.4965 21.9258C64.5551 21.9648 64.6137 21.9844 64.6723 21.9844C64.7504 21.9844 64.809 22.0039 64.848 22.043C64.9262 22.0625 64.9945 22.1113 65.0531 22.1895C65.1312 22.2676 65.1801 22.3555 65.1996 22.4531C65.2387 22.7461 65.1605 23.0488 64.9652 23.3613C64.7895 23.6738 64.6332 23.9082 64.4965 24.0645C64.3988 24.2207 64.2914 24.3574 64.1742 24.4746C64.057 24.5723 63.9203 24.6699 63.7641 24.7676C63.5297 24.7676 63.2855 24.7871 63.0316 24.8262C62.7973 24.8457 62.5824 24.8359 62.3871 24.7969C62.348 24.875 62.2895 24.9336 62.2113 24.9727C62.1527 24.9922 62.143 25.041 62.182 25.1191C61.518 25.6855 60.932 26.291 60.4242 26.9355C59.9164 27.5605 59.516 28.3027 59.223 29.1621C59.1254 29.4941 59.0277 29.7383 58.9301 29.8945C58.8324 30.0312 58.7836 30.1777 58.7836 30.334C58.9008 30.7441 59.0961 31.0957 59.3695 31.3887C59.643 31.6621 59.9164 31.8184 60.1898 31.8574C60.5023 31.8965 60.7758 31.8379 61.0102 31.6816C61.2641 31.5254 61.4984 31.3887 61.7133 31.2715C61.9867 31.0762 62.2504 30.9004 62.5043 30.7441C62.7777 30.5879 63.0609 30.4219 63.3539 30.2461C63.432 30.207 63.5102 30.168 63.5883 30.1289C63.6664 30.0703 63.7445 30.0117 63.8227 29.9531C64.0766 29.7773 64.3012 29.6113 64.4965 29.4551C64.7113 29.2793 64.9262 29.1133 65.141 28.957C65.2387 28.9375 65.307 28.9082 65.3461 28.8691C65.4047 28.8105 65.4828 28.7812 65.5805 28.7812C65.932 28.4688 66.3129 28.1953 66.723 27.9609C67.1332 27.707 67.5629 27.4531 68.0121 27.1992C68.1488 27.0625 68.2855 26.9453 68.4223 26.8477C68.5785 26.7305 68.725 26.6035 68.8617 26.4668C68.9984 26.4668 69.0961 26.4375 69.1547 26.3789C69.2133 26.3008 69.3012 26.2617 69.4184 26.2617ZM91.5152 16.8281C91.7691 16.8672 91.984 16.8965 92.1598 16.916C92.3355 16.9355 92.4918 16.9551 92.6285 16.9746C92.7848 16.9746 92.941 16.9746 93.0973 16.9746C93.2535 16.9551 93.4488 16.9258 93.6832 16.8867C94.1129 16.8281 94.4938 16.7793 94.8258 16.7402C95.1773 16.6816 95.5582 16.6328 95.9684 16.5938C96.0855 16.5742 96.2027 16.5742 96.3199 16.5938C96.4566 16.6133 96.5836 16.623 96.7008 16.623C96.9547 16.623 97.1988 16.6133 97.4332 16.5938C97.6871 16.5742 97.9215 16.5547 98.1363 16.5352C98.2145 16.5156 98.2828 16.4961 98.3414 16.4766C98.4 16.457 98.4586 16.457 98.5172 16.4766C98.693 16.4766 98.8688 16.4766 99.0445 16.4766C99.2203 16.457 99.3766 16.5156 99.5133 16.6523C99.5719 16.8477 99.5914 16.9551 99.5719 16.9746C99.5523 16.9941 99.5328 17.0234 99.5133 17.0625C99.4938 17.3164 99.4547 17.4434 99.3961 17.4434C99.357 17.4434 99.3375 17.4629 99.3375 17.502C99.1813 17.541 99.0445 17.5801 98.9273 17.6191C98.8297 17.6387 98.7516 17.6973 98.693 17.7949C98.3609 17.873 98.0484 17.8926 97.7555 17.8535C97.482 17.7949 97.1988 17.834 96.9059 17.9707C96.7691 18.0293 96.6227 18.1074 96.4664 18.2051C96.3297 18.2832 96.1539 18.2832 95.9391 18.2051C95.7438 18.2051 95.5191 18.2148 95.2652 18.2344C95.0113 18.2539 94.7672 18.2734 94.5328 18.293C94.0836 18.332 93.693 18.3711 93.3609 18.4102C93.0484 18.4297 92.7457 18.4492 92.4527 18.4688C92.1598 18.4688 91.857 18.4785 91.5445 18.498C91.2516 18.5176 90.8902 18.5273 90.4605 18.5273C90.3043 18.6641 90.1969 18.8301 90.1383 19.0254C90.0992 19.2207 90.0016 19.377 89.8453 19.4941C89.6891 19.8652 89.5621 20.1191 89.4645 20.2559C89.3668 20.373 89.2984 20.5195 89.2594 20.6953C88.9859 21.0469 88.732 21.418 88.4977 21.8086C88.2828 22.1797 88.0289 22.5312 87.7359 22.8633C87.6969 23.0781 87.6188 23.2734 87.5016 23.4492C87.4039 23.6055 87.3355 23.8203 87.2965 24.0938C87.0816 24.3867 86.9254 24.709 86.8277 25.0605C86.7301 25.4121 86.6031 25.7832 86.4469 26.1738C86.4078 26.3301 86.359 26.4863 86.3004 26.6426C86.2613 26.7793 86.2125 26.9258 86.1539 27.082C86.0758 27.2773 85.9781 27.4629 85.8609 27.6387C85.7633 27.7949 85.6656 27.9707 85.568 28.166C85.5289 28.2051 85.5094 28.2637 85.5094 28.3418C85.5094 28.4004 85.4996 28.4492 85.4801 28.4883C85.4215 28.625 85.3629 28.752 85.3043 28.8691C85.2457 28.9668 85.1969 29.0645 85.1578 29.1621C85.1188 29.2598 85.0895 29.3672 85.0699 29.4844C85.0699 29.582 85.0504 29.6797 85.0113 29.7773C84.9918 29.8359 84.9723 29.8945 84.9527 29.9531C84.9332 29.9922 84.9137 30.041 84.8941 30.0996C84.8355 30.373 84.8355 30.5586 84.8941 30.6562C84.9527 30.7539 85.0016 30.8516 85.0406 30.9492C85.0797 31.0664 85.1188 31.1738 85.1578 31.2715C85.1969 31.3496 85.2262 31.4375 85.2457 31.5352C85.3434 31.5742 85.4313 31.6133 85.5094 31.6523C85.607 31.6914 85.7047 31.7109 85.8023 31.7109C85.9195 31.7305 86.0465 31.6816 86.1832 31.5645C86.3199 31.4277 86.4371 31.3496 86.5348 31.3301C86.6715 31.291 86.7984 31.2715 86.9156 31.2715C87.0523 31.2715 87.1695 31.2422 87.2672 31.1836C87.3844 31.0859 87.482 30.9883 87.5602 30.8906C87.6383 30.793 87.7457 30.7246 87.8824 30.6855C88.1949 30.6074 88.3609 30.5488 88.3805 30.5098C88.4 30.4512 88.4684 30.373 88.5855 30.2754C88.7223 30.1777 88.8395 30.0898 88.9371 30.0117C89.0543 29.9141 89.191 29.8164 89.3473 29.7188C89.5426 29.6211 89.65 29.5625 89.6695 29.543C89.7086 29.5234 89.7965 29.4551 89.9332 29.3379C90.1285 29.2402 90.2945 29.1328 90.4313 29.0156C90.568 28.8984 90.7242 28.791 90.9 28.6934C91.0953 28.6152 91.2125 28.5664 91.2516 28.5469C91.2906 28.5078 91.3102 28.4785 91.3102 28.459C91.3297 28.4395 91.3492 28.4102 91.3688 28.3711C91.4078 28.332 91.5055 28.2637 91.6617 28.166C91.7398 28.0098 91.8277 27.8828 91.9254 27.7852C92.023 27.6875 92.1402 27.5605 92.277 27.4043C92.3941 27.2676 92.5113 27.1504 92.6285 27.0527C92.7652 26.9551 92.8824 26.8574 92.9801 26.7598C93.0387 26.7207 93.0875 26.6816 93.1266 26.6426C93.1656 26.584 93.234 26.5449 93.3316 26.5254C93.4488 26.4277 93.5367 26.3496 93.5953 26.291C93.6734 26.2129 93.7906 26.1055 93.9469 25.9688C93.9859 25.9297 94.0348 25.8809 94.0934 25.8223C94.152 25.7637 94.2008 25.7246 94.2398 25.7051C94.318 25.7051 94.3766 25.7344 94.4156 25.793C94.4742 25.8516 94.5426 25.8809 94.6207 25.8809C94.6012 26.1348 94.5914 26.3008 94.5914 26.3789C94.5914 26.4375 94.5719 26.5059 94.5328 26.584C94.4156 26.7598 94.2789 26.8574 94.1227 26.877C93.9859 26.8965 93.8785 27.0039 93.8004 27.1992C93.7418 27.1602 93.6637 27.1504 93.566 27.1699C93.4879 27.1895 93.4293 27.2188 93.3902 27.2578C93.4293 27.3359 93.4488 27.4043 93.4488 27.4629C93.4488 27.5215 93.4586 27.5898 93.4781 27.668C93.1266 28.0195 92.8922 28.3027 92.775 28.5176C92.5406 28.7715 92.4137 28.918 92.3941 28.957C92.3746 28.9766 92.3648 28.9863 92.3648 28.9863C92.3648 28.9863 92.3551 28.9961 92.3355 29.0156C92.316 29.0352 92.2477 29.1035 92.1305 29.2207C91.857 29.4355 91.652 29.6406 91.5152 29.8359C91.3785 30.0312 91.1734 30.207 90.9 30.3633C90.6852 30.5195 90.5387 30.6367 90.4605 30.7148C90.3824 30.793 90.2652 30.9004 90.109 31.0371C90.0309 31.1152 89.9527 31.2031 89.8746 31.3008C89.816 31.3789 89.7379 31.457 89.6402 31.5352C89.5035 31.6328 89.3668 31.7207 89.2301 31.7988C89.1129 31.877 89.0055 31.9746 88.9078 32.0918C88.6148 32.2285 88.4 32.3848 88.2633 32.5605C88.1461 32.7363 87.9605 32.9023 87.7066 33.0586C87.5309 33.1758 87.2867 33.3223 86.9742 33.498C86.6813 33.6738 86.4273 33.8008 86.2125 33.8789C86.1539 33.8984 86.0953 33.918 86.0367 33.9375C85.9977 33.957 85.9488 33.9766 85.8902 33.9961C85.734 33.8984 85.5777 33.8008 85.4215 33.7031C85.2848 33.6055 85.1676 33.4688 85.0699 33.293C84.8941 33.1562 84.7477 33.0586 84.6305 33C84.5328 32.9414 84.4352 32.8633 84.3375 32.7656C84.1422 32.4336 83.9176 32.1016 83.6637 31.7695C83.4293 31.4375 83.2438 31.0664 83.107 30.6562C83.068 30.5781 83.0387 30.5 83.0191 30.4219C83.0191 30.3242 83.0094 30.2266 82.9898 30.1289C82.9508 29.9727 82.9117 29.8359 82.8727 29.7188C82.8336 29.6016 82.8238 29.4551 82.8434 29.2793C82.8434 29.1621 82.8629 29.0352 82.902 28.8984C82.941 28.7617 82.9801 28.6152 83.0191 28.459C83.0973 28.2051 83.1852 27.9609 83.2828 27.7266C83.4 27.4922 83.4879 27.2383 83.5465 26.9648C83.6051 26.75 83.6637 26.5547 83.7223 26.3789C83.7809 26.2031 83.8492 26.0078 83.9273 25.793C83.9664 25.6953 83.9859 25.6074 83.9859 25.5293C84.0055 25.4316 84.0641 25.3633 84.1617 25.3242C84.2398 24.9336 84.3668 24.5625 84.5426 24.2109C84.7184 23.8398 84.8941 23.4883 85.0699 23.1562C85.2848 22.7461 85.4801 22.3262 85.6559 21.8965C85.8512 21.4668 86.0563 21.0469 86.2711 20.6367C86.2906 20.4023 86.3688 20.207 86.5055 20.0508C86.525 19.8359 86.6031 19.6309 86.7398 19.4355C86.8766 19.2207 86.9742 19.0059 87.0328 18.791C86.818 18.7324 86.5738 18.7324 86.3004 18.791C86.0465 18.8301 85.8219 18.8691 85.6266 18.9082C85.275 18.9277 84.9039 18.9277 84.5133 18.9082C84.3766 18.8887 84.2398 18.8691 84.1031 18.8496C83.9859 18.8105 83.8688 18.791 83.7516 18.791C83.5758 18.8105 83.4391 18.8008 83.3414 18.7617C83.2633 18.7031 83.1754 18.6934 83.0777 18.7324C82.8238 18.5176 82.6383 18.3711 82.5211 18.293C82.4039 18.2148 82.2965 18.1465 82.1988 18.0879C82.0816 18.0098 81.984 17.9316 81.9059 17.8535C81.8082 17.7559 81.7301 17.6191 81.6715 17.4434C81.6715 17.3848 81.7008 17.3359 81.7594 17.2969C81.818 17.2578 81.8668 17.2188 81.9059 17.1797C82.0621 17.1406 82.2379 17.1309 82.4332 17.1504C82.6285 17.1504 82.7848 17.1113 82.902 17.0332C83.2145 17.0723 83.4977 17.0527 83.7516 16.9746C84.025 16.8965 84.3082 16.8672 84.6012 16.8867C84.6598 16.8867 84.7184 16.8965 84.777 16.916C84.8355 16.9355 84.8941 16.9453 84.9527 16.9453C85.0504 16.9648 85.1285 16.9648 85.1871 16.9453C85.2652 16.9258 85.3531 16.9062 85.4508 16.8867C85.568 16.8672 85.6949 16.8672 85.8316 16.8867C85.9684 16.9062 86.1051 16.9062 86.2418 16.8867C86.4957 16.8672 86.7984 16.8965 87.15 16.9746C87.5211 17.0332 87.8434 17.0137 88.1168 16.916C88.2145 16.6426 88.3219 16.3691 88.4391 16.0957C88.5758 15.8027 88.6832 15.5195 88.7613 15.2461C88.8395 15.1289 88.9176 15.002 88.9957 14.8652C89.0738 14.709 89.1324 14.5625 89.1715 14.4258C89.2887 14.2305 89.3766 14.0742 89.4352 13.957C89.5133 13.8398 89.6012 13.7227 89.6988 13.6055C89.8355 13.332 89.9332 13.0684 89.9918 12.8145C90.0699 12.541 90.1676 12.248 90.2848 11.9355C90.5387 11.6621 90.7926 11.3301 91.0465 10.9395C91.1832 10.959 91.2906 10.9199 91.3688 10.8223C91.4664 10.7246 91.6031 10.7344 91.7789 10.8516C91.7789 10.9102 91.7984 10.9688 91.8375 11.0273C91.8961 11.0664 91.9059 11.1348 91.8668 11.2324C91.9645 11.3301 92.0426 11.418 92.1012 11.4961C92.1598 11.5742 92.2086 11.6621 92.2477 11.7598C92.2867 11.916 92.2672 12.1016 92.1891 12.3164C92.1305 12.5117 92.15 12.6973 92.2477 12.873C92.2867 12.9707 92.2965 13.0684 92.277 13.166C92.2574 13.2441 92.2672 13.3223 92.3063 13.4004C92.3453 13.498 92.3941 13.5957 92.4527 13.6934C92.5309 13.791 92.5699 13.918 92.5699 14.0742C92.5699 14.1328 92.5504 14.2109 92.5113 14.3086C92.4918 14.3867 92.4625 14.4746 92.4234 14.5723C92.3453 14.8652 92.2867 15.0703 92.2477 15.1875C92.2086 15.3047 92.1695 15.4316 92.1305 15.5684C91.9938 15.7246 91.9254 15.832 91.9254 15.8906C91.9254 15.9297 91.9156 15.9687 91.8961 16.0078C91.8375 16.125 91.7691 16.2715 91.691 16.4473C91.6324 16.6035 91.5738 16.7305 91.5152 16.8281ZM115.985 25.0898C116.005 25.1484 115.985 25.2656 115.927 25.4414C115.829 25.5586 115.77 25.6855 115.751 25.8223C115.712 25.9004 115.673 25.9688 115.634 26.0273C115.614 26.0859 115.595 26.1641 115.575 26.2617C115.536 26.3789 115.516 26.5156 115.516 26.6719C115.536 26.8281 115.536 26.9746 115.516 27.1113C115.477 27.3262 115.448 27.541 115.429 27.7559C115.409 27.9512 115.389 28.1562 115.37 28.3711C115.37 28.5859 115.35 28.8301 115.311 29.1035C115.272 29.377 115.233 29.6211 115.194 29.8359C115.272 29.9727 115.321 30.1191 115.341 30.2754C115.36 30.4316 115.429 30.5586 115.546 30.6562C115.936 30.5977 116.249 30.5098 116.483 30.3926C116.718 30.2559 116.942 30.0703 117.157 29.8359C117.333 29.7578 117.45 29.6895 117.509 29.6309C117.587 29.5723 117.704 29.4941 117.86 29.3965C117.899 29.3574 117.938 29.3184 117.977 29.2793C118.016 29.2402 118.055 29.2012 118.095 29.1621C118.309 29.0449 118.436 28.9668 118.475 28.9277C118.534 28.8887 118.602 28.8496 118.68 28.8105C119.012 28.5957 119.266 28.3711 119.442 28.1367C119.618 28 119.735 27.8828 119.794 27.7852C119.872 27.668 120.028 27.5605 120.262 27.4629C120.399 27.3066 120.536 27.1797 120.673 27.082C120.829 26.9648 120.975 26.8281 121.112 26.6719C121.21 26.6719 121.288 26.6914 121.346 26.7305C121.405 26.7695 121.473 26.8086 121.552 26.8477C121.61 27.0039 121.62 27.1699 121.581 27.3457C121.542 27.502 121.473 27.6484 121.376 27.7852C121.278 27.9219 121.229 28 121.229 28.0195C121.229 28.0391 121.22 28.0586 121.2 28.0781C121.141 28.1562 121.063 28.2344 120.966 28.3125C120.887 28.3711 120.819 28.4395 120.761 28.5176C120.663 28.6934 120.585 28.7812 120.526 28.7812C120.468 28.7812 120.419 28.8008 120.38 28.8398C120.204 28.9375 120.077 29.0156 119.999 29.0742C119.94 29.1328 119.833 29.2109 119.677 29.3086C119.462 29.4258 119.335 29.5039 119.296 29.543C119.257 29.582 119.218 29.6113 119.179 29.6309C118.925 29.9043 118.69 30.1289 118.475 30.3047C118.28 30.4609 118.065 30.6758 117.831 30.9492C117.753 31.0078 117.675 31.0664 117.596 31.125C117.518 31.1836 117.45 31.2617 117.391 31.3594C117.216 31.4766 117.069 31.5938 116.952 31.7109C116.854 31.8281 116.737 31.9648 116.6 32.1211C116.483 32.1797 116.356 32.2676 116.22 32.3848C116.083 32.4824 115.936 32.5703 115.78 32.6484C115.702 32.6875 115.614 32.7363 115.516 32.7949C115.438 32.834 115.35 32.8535 115.253 32.8535C115.018 32.8926 114.804 32.873 114.608 32.7949C114.413 32.7168 114.227 32.6582 114.052 32.6191C113.973 32.502 113.876 32.4043 113.759 32.3262C113.583 32.1113 113.456 31.8574 113.378 31.5645C113.3 31.2715 113.221 30.959 113.143 30.627C112.987 30.7246 112.841 30.8516 112.704 31.0078C112.567 31.1641 112.391 31.291 112.177 31.3887C111.786 31.7598 111.366 32.1211 110.917 32.4727C110.487 32.8047 110.048 33.1562 109.598 33.5273C109.54 33.5859 109.481 33.6348 109.423 33.6738C109.364 33.7129 109.315 33.7227 109.276 33.7031C109.179 33.8203 109.042 33.8887 108.866 33.9082C108.71 33.9473 108.534 33.9473 108.339 33.9082C108.143 33.8105 107.968 33.7422 107.811 33.7031C107.655 33.6641 107.499 33.6055 107.343 33.5273C107.011 33.4688 106.737 33.3223 106.522 33.0879C106.288 32.8535 106.093 32.5801 105.936 32.2676C105.878 32.1113 105.839 31.9648 105.819 31.8281C105.78 31.6914 105.741 31.5352 105.702 31.3594C105.682 31.2031 105.653 31.0762 105.614 30.9785C105.575 30.8613 105.575 30.7539 105.614 30.6562C105.575 30.5977 105.565 30.5391 105.585 30.4805C105.604 30.4023 105.614 30.3242 105.614 30.2461C105.595 29.9727 105.624 29.6797 105.702 29.3672C105.761 29.0547 105.848 28.7715 105.966 28.5176C106.005 28.4395 106.083 28.3418 106.2 28.2246C106.239 28.166 106.268 28.1074 106.288 28.0488C106.307 27.9902 106.337 27.9414 106.376 27.9023C106.415 27.8438 106.473 27.7852 106.552 27.7266C106.63 27.668 106.698 27.6094 106.757 27.5508C106.854 27.4141 106.962 27.2969 107.079 27.1992C107.216 27.082 107.343 26.9648 107.46 26.8477C107.518 26.7891 107.567 26.7207 107.606 26.6426C107.665 26.5645 107.743 26.5059 107.841 26.4668C107.919 26.3301 108.007 26.2227 108.104 26.1445C108.202 26.0469 108.309 25.9492 108.427 25.8516C108.759 25.4414 109.169 25.0996 109.657 24.8262C110.145 24.5527 110.585 24.2402 110.975 23.8887C111.112 23.8301 111.229 23.7617 111.327 23.6836C111.425 23.6055 111.522 23.5273 111.62 23.4492C111.874 23.2344 112.137 23.166 112.411 23.2441C112.684 23.3223 112.938 23.3906 113.173 23.4492C113.368 23.625 113.554 23.8008 113.729 23.9766C113.925 24.1523 114.091 24.3477 114.227 24.5625C114.364 24.543 114.52 24.543 114.696 24.5625C114.872 24.5625 115.057 24.543 115.253 24.5039C115.311 24.5039 115.37 24.4941 115.429 24.4746C115.487 24.4355 115.536 24.416 115.575 24.416C115.868 24.5137 116.014 24.6602 116.014 24.8555L115.985 25.0898ZM112.147 25.2949C111.62 25.5488 111.141 25.8516 110.712 26.2031C110.282 26.5352 109.872 26.8965 109.481 27.2871C109.384 27.3848 109.276 27.4824 109.159 27.5801C109.061 27.6582 108.973 27.7461 108.895 27.8438C108.817 27.9414 108.739 28.0586 108.661 28.1953C108.602 28.332 108.544 28.459 108.485 28.5762C108.446 28.6543 108.407 28.7227 108.368 28.7812C108.329 28.8203 108.29 28.8691 108.251 28.9277C108.212 29.0254 108.192 29.123 108.192 29.2207C108.212 29.3184 108.221 29.4258 108.221 29.543C108.221 29.6406 108.221 29.7383 108.221 29.8359C108.221 29.9336 108.231 30.0312 108.251 30.1289C108.309 30.3438 108.339 30.5586 108.339 30.7734C108.339 30.9297 108.348 31.125 108.368 31.3594C108.407 31.5742 108.485 31.7207 108.602 31.7988C108.72 31.877 108.837 31.8965 108.954 31.8574C109.091 31.8184 109.208 31.7891 109.305 31.7695C109.989 31.2422 110.634 30.6953 111.239 30.1289C111.845 29.543 112.382 28.8887 112.85 28.166C112.811 27.6582 112.802 27.1699 112.821 26.7012C112.86 26.2129 112.821 25.7637 112.704 25.3535C112.626 25.3145 112.528 25.3047 112.411 25.3242C112.313 25.3242 112.225 25.3145 112.147 25.2949ZM141.275 18.4102C141.314 18.4688 141.334 18.5273 141.334 18.5859C141.334 18.6445 141.363 18.6934 141.422 18.7324C141.383 18.9082 141.344 19.0938 141.305 19.2891C141.285 19.4648 141.275 19.6406 141.275 19.8164C141.275 19.8945 141.295 19.9629 141.334 20.0215C141.393 20.0801 141.422 20.1387 141.422 20.1973C141.324 20.4316 141.246 20.5684 141.188 20.6074C141.148 20.6465 141.129 20.6953 141.129 20.7539C141.031 20.793 140.953 20.8516 140.895 20.9297C140.855 21.0078 140.777 21.0469 140.66 21.0469C140.621 21.1055 140.572 21.1543 140.514 21.1934C140.475 21.2129 140.445 21.2617 140.426 21.3398C140.113 21.4766 139.762 21.4668 139.371 21.3105C139.273 21.1348 139.137 21.0078 138.961 20.9297C138.707 20.5586 138.697 20.1191 138.932 19.6113C138.971 19.5137 139.01 19.416 139.049 19.3184C139.107 19.2012 139.156 19.123 139.195 19.084C139.41 18.9277 139.566 18.8301 139.664 18.791C139.742 18.752 139.82 18.7031 139.898 18.6445C139.996 18.5859 140.104 18.5371 140.221 18.498C140.26 18.4785 140.309 18.4688 140.367 18.4688C140.445 18.4688 140.523 18.4492 140.602 18.4102C140.68 18.3906 140.748 18.3711 140.807 18.3516C140.865 18.332 140.924 18.3223 140.982 18.3223L141.275 18.4102ZM136.734 31.3594C136.91 31.2812 137.125 31.252 137.379 31.2715C137.633 31.291 137.838 31.252 137.994 31.1543C138.072 31.0957 138.141 31.0371 138.199 30.9785C138.258 30.9199 138.326 30.9004 138.404 30.9199C138.717 30.8027 138.98 30.6855 139.195 30.5684C139.41 30.4512 139.645 30.3633 139.898 30.3047C139.957 30.2852 140.025 30.2461 140.104 30.1875C140.201 30.1289 140.27 30.0801 140.309 30.041C140.621 29.9434 140.846 29.8457 140.982 29.748C141.119 29.6504 141.246 29.5527 141.363 29.4551C141.5 29.3574 141.627 29.2598 141.744 29.1621C141.881 29.0449 142.047 28.9082 142.242 28.752C142.516 28.5957 142.74 28.459 142.916 28.3418C143.111 28.2246 143.316 28.0781 143.531 27.9023C143.57 27.8047 143.619 27.7363 143.678 27.6973C143.756 27.6387 143.814 27.5703 143.854 27.4922C144.205 27.4922 144.4 27.6289 144.439 27.9023C144.342 28.1172 144.205 28.293 144.029 28.4297C143.873 28.5664 143.727 28.7227 143.59 28.8984C143.434 28.9961 143.307 29.084 143.209 29.1621C143.111 29.2402 143.014 29.3574 142.916 29.5137C142.896 29.5137 142.838 29.5625 142.74 29.6602C142.643 29.7383 142.584 29.7773 142.564 29.7773C142.447 29.9141 142.359 30.002 142.301 30.041C142.262 30.0801 142.223 30.1094 142.184 30.1289C142.164 30.1289 142.125 30.1484 142.066 30.1875C142.027 30.2266 141.939 30.3047 141.803 30.4219C141.666 30.6367 141.49 30.8125 141.275 30.9492C140.865 31.3398 140.416 31.6816 139.928 31.9746C139.459 32.248 139.029 32.5215 138.639 32.7949C138.561 32.834 138.492 32.8926 138.434 32.9707C138.375 33.0293 138.307 33.0879 138.229 33.1465C138.131 33.2246 137.975 33.3027 137.76 33.3809C137.564 33.459 137.389 33.5273 137.232 33.5859C137.115 33.6641 137.008 33.7227 136.91 33.7617C136.48 33.7812 136.148 33.7129 135.914 33.5566C135.66 33.4199 135.465 33.3125 135.328 33.2344C135.191 33.1562 135.074 33.0293 134.977 32.8535C134.762 32.7559 134.625 32.5801 134.566 32.3262C134.527 32.0527 134.479 31.7891 134.42 31.5352C134.4 31.4375 134.381 31.3301 134.361 31.2129C134.342 31.0762 134.342 30.9395 134.361 30.8027C134.4 30.5879 134.43 30.3633 134.449 30.1289C134.469 29.875 134.518 29.6602 134.596 29.4844C134.693 29.2695 134.742 29.0547 134.742 28.8398C134.762 28.625 134.82 28.4102 134.918 28.1953C135.035 28 135.084 27.8926 135.064 27.873C135.064 27.8535 135.074 27.8242 135.094 27.7852C135.133 27.7266 135.172 27.668 135.211 27.6094C135.27 27.5508 135.318 27.4824 135.357 27.4043L135.533 26.9648C135.611 26.8281 135.699 26.6914 135.797 26.5547C135.895 26.418 135.973 26.252 136.031 26.0566C136.07 25.9395 136.119 25.832 136.178 25.7344C136.256 25.6367 136.334 25.5293 136.412 25.4121C136.471 25.2949 136.52 25.1777 136.559 25.0605C136.598 24.9238 136.646 24.7871 136.705 24.6504C136.764 24.4941 136.832 24.3379 136.91 24.1816C137.008 24.0254 137.105 23.8691 137.203 23.7129C137.281 23.5566 137.35 23.4395 137.408 23.3613C137.467 23.2832 137.584 23.2344 137.76 23.2148C137.838 23.1953 137.926 23.2051 138.023 23.2441C138.121 23.2637 138.219 23.2539 138.316 23.2148C138.57 23.0977 138.746 23.0391 138.844 23.0391C138.941 23.0391 139.01 23.0098 139.049 22.9512C139.264 22.9707 139.42 23.0391 139.518 23.1562C139.615 23.2734 139.732 23.3906 139.869 23.5078C139.752 24.0742 139.615 24.5137 139.459 24.8262C139.322 25.1191 139.166 25.4316 138.99 25.7637C138.893 25.9199 138.795 26.0957 138.697 26.291C138.6 26.4863 138.512 26.6621 138.434 26.8184C138.336 27.0332 138.229 27.2285 138.111 27.4043C138.014 27.5605 137.926 27.7461 137.848 27.9609C137.809 28.0586 137.76 28.1562 137.701 28.2539C137.662 28.332 137.623 28.4199 137.584 28.5176C137.545 28.6543 137.486 28.7812 137.408 28.8984C137.35 28.9961 137.291 29.0938 137.232 29.1914C137.174 29.3086 137.115 29.4258 137.057 29.543C136.998 29.6602 136.949 29.7871 136.91 29.9238C136.812 30.1582 136.754 30.3047 136.734 30.3633C136.715 30.4023 136.695 30.4414 136.676 30.4805C136.637 30.6953 136.578 30.8711 136.5 31.0078C136.422 31.1445 136.451 31.2422 136.588 31.3008L136.734 31.3594ZM167.064 26.0859C167.279 26.1445 167.415 26.2129 167.474 26.291C167.552 26.3691 167.591 26.4473 167.591 26.5254C167.435 26.7402 167.337 26.8867 167.298 26.9648C167.279 27.0234 167.22 27.0723 167.122 27.1113C166.868 27.502 166.575 27.8535 166.243 28.166C165.931 28.459 165.638 28.791 165.364 29.1621C165.267 29.2598 165.179 29.3574 165.101 29.4551C165.023 29.5527 164.935 29.6504 164.837 29.748C164.622 29.9043 164.427 30.0801 164.251 30.2754C164.075 30.4512 163.89 30.6172 163.695 30.7734C163.597 30.8516 163.499 30.9297 163.402 31.0078C163.323 31.0664 163.236 31.1445 163.138 31.2422C163.04 31.3398 162.952 31.418 162.874 31.4766C162.796 31.5352 162.708 31.6035 162.611 31.6816C162.493 31.8184 162.376 31.9551 162.259 32.0918C162.142 32.2285 162.025 32.375 161.907 32.5312C161.693 32.6289 161.497 32.7461 161.321 32.8828C161.146 33.0195 160.941 33.1367 160.706 33.2344C160.609 33.293 160.511 33.3809 160.413 33.498C160.335 33.6348 160.228 33.7227 160.091 33.7617C159.935 33.8203 159.769 33.8301 159.593 33.791C159.417 33.7715 159.271 33.7324 159.154 33.6738C159.056 33.5957 158.978 33.5469 158.919 33.5273C158.861 33.5078 158.812 33.498 158.773 33.498C158.597 33.2441 158.47 32.9707 158.392 32.6777C158.314 32.3652 158.226 32.043 158.128 31.7109C158.089 31.6133 158.06 31.5156 158.04 31.418C158.021 31.3008 158.001 31.1738 157.982 31.0371C157.962 30.959 157.943 30.8809 157.923 30.8027C157.923 30.7246 157.904 30.6367 157.864 30.5391C157.825 30.4414 157.786 30.3438 157.747 30.2461C157.708 30.1289 157.679 30.0117 157.659 29.8945C157.62 29.6602 157.611 29.4355 157.63 29.2207C157.63 28.9863 157.65 28.7617 157.689 28.5469C157.806 27.9023 157.972 27.2871 158.187 26.7012C158.421 26.1152 158.655 25.5586 158.89 25.0312C158.929 24.8164 158.978 24.6309 159.036 24.4746C159.114 24.3184 159.183 24.1426 159.241 23.9473C159.339 23.8105 159.407 23.6543 159.446 23.4785C159.486 23.3027 159.534 23.127 159.593 22.9512C159.652 22.7949 159.72 22.6289 159.798 22.4531C159.896 22.2578 159.964 22.0723 160.003 21.8965C160.062 21.7012 160.111 21.5059 160.15 21.3105C160.208 21.1152 160.277 20.9395 160.355 20.7832C160.511 20.373 160.657 19.9824 160.794 19.6113C160.931 19.2402 161.077 18.8691 161.234 18.498C161.273 18.3809 161.312 18.2637 161.351 18.1465C161.39 18.0293 161.448 17.9219 161.527 17.8242C161.566 17.707 161.614 17.6094 161.673 17.5312C161.732 17.4336 161.79 17.3359 161.849 17.2383C161.849 17.1406 161.878 17.0723 161.937 17.0332C162.015 16.9746 162.073 16.9062 162.113 16.8281C162.21 16.6719 162.279 16.5156 162.318 16.3594C162.376 16.2031 162.454 16.0469 162.552 15.8906L162.904 15.4512C162.943 15.373 162.982 15.2949 163.021 15.2168C163.06 15.1387 163.118 15.0703 163.196 15.0117C163.411 14.6602 163.646 14.3086 163.9 13.957C164.154 13.6055 164.417 13.2344 164.691 12.8438C164.866 12.5703 165.062 12.3164 165.277 12.082C165.491 11.8281 165.716 11.584 165.95 11.3496C166.029 11.252 166.116 11.1445 166.214 11.0273C166.331 10.9102 166.448 10.8418 166.566 10.8223C166.741 10.8027 166.937 10.8223 167.152 10.8809C167.21 10.9785 167.259 11.0859 167.298 11.2031C167.357 11.3008 167.405 11.418 167.445 11.5547C167.484 12.1602 167.464 12.7461 167.386 13.3125C167.308 13.8789 167.22 14.4355 167.122 14.9824C167.103 15.0801 167.093 15.1777 167.093 15.2754C167.113 15.3535 167.113 15.4414 167.093 15.5391C167.054 15.6562 167.005 15.8125 166.946 16.0078C166.888 16.1836 166.839 16.3496 166.8 16.5059C166.8 16.7793 166.741 17.0234 166.624 17.2383C166.507 17.4531 166.429 17.668 166.39 17.8828C166.331 17.9219 166.292 17.9902 166.273 18.0879C166.273 18.166 166.243 18.2246 166.185 18.2637C166.146 18.4785 166.077 18.6738 165.98 18.8496C165.902 19.0254 165.833 19.2012 165.775 19.377C165.482 19.7871 165.179 20.1875 164.866 20.5781C164.573 20.9492 164.29 21.3398 164.017 21.75C163.685 22.2578 163.323 22.7461 162.933 23.2148C162.562 23.6836 162.21 24.1719 161.878 24.6797C161.624 24.8945 161.409 25.1387 161.234 25.4121C161.058 25.6855 160.833 25.9297 160.56 26.1445C160.462 26.5352 160.364 26.9648 160.267 27.4336C160.189 27.8828 160.101 28.3418 160.003 28.8105C159.984 28.9473 159.954 29.084 159.915 29.2207C159.876 29.3379 159.837 29.4648 159.798 29.6016C159.759 29.7578 159.749 29.9238 159.769 30.0996C159.788 30.2754 159.759 30.4414 159.681 30.5977C159.72 30.6953 159.739 30.8125 159.739 30.9492C159.759 31.0664 159.798 31.1738 159.857 31.2715C159.896 31.3301 159.945 31.3887 160.003 31.4473C160.081 31.5059 160.15 31.5352 160.208 31.5352C160.345 31.457 160.423 31.4277 160.443 31.4473C160.462 31.4473 160.491 31.4375 160.53 31.418C160.628 31.3594 160.726 31.2812 160.823 31.1836C160.921 31.0859 161.009 30.998 161.087 30.9199C161.185 30.8809 161.253 30.8418 161.292 30.8027C161.351 30.7441 161.409 30.6953 161.468 30.6562C161.527 30.6172 161.575 30.5879 161.614 30.5684C161.673 30.5488 161.722 30.5195 161.761 30.4805C162.034 30.1875 162.298 29.9727 162.552 29.8359C162.806 29.6797 163.011 29.4941 163.167 29.2793C163.363 29.1621 163.538 29.0547 163.695 28.957C163.812 28.8984 163.909 28.8203 163.988 28.7227C164.085 28.6055 164.202 28.5176 164.339 28.459C164.378 28.4004 164.417 28.3516 164.456 28.3125C164.495 28.2734 164.534 28.2246 164.573 28.166C164.808 28.0098 165.032 27.8535 165.247 27.6973C165.482 27.541 165.726 27.3848 165.98 27.2285C166.019 27.1309 166.077 27.0527 166.155 26.9941C166.253 26.9355 166.331 26.877 166.39 26.8184C166.448 26.7598 166.497 26.7012 166.536 26.6426C166.575 26.5645 166.644 26.5156 166.741 26.4961C166.761 26.3984 166.8 26.3301 166.859 26.291C166.937 26.252 167.005 26.1836 167.064 26.0859ZM165.452 15.1582C165.277 15.1973 165.15 15.2852 165.071 15.4219C165.013 15.5586 164.954 15.7148 164.896 15.8906C164.818 16.0469 164.749 16.1641 164.691 16.2422C164.652 16.3203 164.642 16.4375 164.661 16.5938C164.056 17.5898 163.499 18.6348 162.991 19.7285C162.503 20.8223 162.005 21.9258 161.497 23.0391C161.888 22.6484 162.249 22.1797 162.581 21.6328C162.933 21.0859 163.294 20.6172 163.665 20.2266C163.939 19.5625 164.241 18.9473 164.573 18.3809C164.905 17.7949 165.159 17.1406 165.335 16.418C165.257 16.1836 165.267 15.9785 165.364 15.8027C165.462 15.6074 165.501 15.3926 165.482 15.1582H165.452ZM213.396 15.8906C212.869 16.0664 212.371 16.2617 211.902 16.4766C211.433 16.6719 210.984 16.9062 210.554 17.1797C210.418 17.2773 210.3 17.3945 210.203 17.5312C210.105 17.6484 209.988 17.7559 209.851 17.8535C209.461 18.1465 209.05 18.293 208.621 18.293C208.445 18.1953 208.337 18.0977 208.298 18C208.455 17.6094 208.64 17.2871 208.855 17.0332C209.089 16.7598 209.324 16.4863 209.558 16.2129C209.773 16.0762 209.968 15.9395 210.144 15.8027C210.32 15.666 210.496 15.5195 210.671 15.3633C210.847 15.207 211.023 15.0508 211.199 14.8945C211.375 14.7383 211.56 14.6113 211.755 14.5137C212.029 14.377 212.283 14.25 212.517 14.1328C212.771 13.9961 213.015 13.8496 213.25 13.6934C213.601 13.4199 213.992 13.1758 214.421 12.9609C214.871 12.7461 215.3 12.541 215.711 12.3457C215.925 12.248 216.13 12.1602 216.326 12.082C216.541 12.0039 216.755 11.9453 216.97 11.9062C217.185 11.8477 217.41 11.7988 217.644 11.7598C217.879 11.7207 218.103 11.6621 218.318 11.584C218.63 11.5449 218.923 11.4766 219.197 11.3789C219.49 11.2812 219.802 11.2422 220.134 11.2617C220.212 11.2617 220.271 11.2715 220.31 11.291C220.349 11.3105 220.408 11.3301 220.486 11.3496C220.74 11.3496 220.916 11.3691 221.013 11.4082C221.13 11.4473 221.238 11.4863 221.336 11.5254C221.531 11.6035 221.707 11.6914 221.863 11.7891C222.019 11.8672 222.185 11.9551 222.361 12.0527C222.459 12.1113 222.537 12.1699 222.595 12.2285C222.654 12.2871 222.722 12.3457 222.8 12.4043C222.957 12.502 223.054 12.5801 223.093 12.6387C223.152 12.6777 223.211 12.7266 223.269 12.7852C223.367 12.8828 223.455 12.9609 223.533 13.0195C223.63 13.0586 223.67 13.1465 223.65 13.2832C223.728 13.498 223.806 13.7129 223.884 13.9277C223.962 14.123 224.002 14.3379 224.002 14.5723C224.002 14.6699 223.982 14.7676 223.943 14.8652C223.923 14.9629 223.894 15.0605 223.855 15.1582C223.816 15.2949 223.787 15.4219 223.767 15.5391C223.767 15.6562 223.738 15.7637 223.679 15.8613C223.64 16.1348 223.591 16.4082 223.533 16.6816C223.494 16.9355 223.455 17.209 223.416 17.502C223.396 17.5996 223.386 17.707 223.386 17.8242C223.386 17.9414 223.377 18.0488 223.357 18.1465C223.318 18.4004 223.25 18.6445 223.152 18.8789C223.054 19.0938 223.005 19.3086 223.005 19.5234C222.888 19.9336 222.761 20.2656 222.625 20.5195C222.488 20.7539 222.341 20.998 222.185 21.252C221.99 21.5254 221.824 21.8379 221.687 22.1895C221.55 22.5215 221.404 22.8535 221.248 23.1855C221.209 23.2441 221.179 23.3125 221.16 23.3906C221.16 23.4688 221.14 23.5371 221.101 23.5957C220.925 23.8105 220.828 23.957 220.808 24.0352C220.789 24.1133 220.759 24.2012 220.72 24.2988C220.662 24.4355 220.593 24.5918 220.515 24.7676C220.457 24.9238 220.398 25.0801 220.339 25.2363C220.3 25.2949 220.242 25.4023 220.164 25.5586C220.105 25.6758 220.027 25.793 219.929 25.9102C219.851 26.0273 219.763 26.1543 219.666 26.291C219.353 26.7793 219.031 27.2383 218.699 27.668C218.367 28.0977 218.005 28.5176 217.615 28.9277C217.127 29.416 216.609 29.8652 216.062 30.2754C215.535 30.6855 215.007 31.1152 214.48 31.5645C214.285 31.7207 214.089 31.8867 213.894 32.0625C213.699 32.2188 213.484 32.375 213.25 32.5312C213.152 32.6094 213.045 32.6777 212.927 32.7363C212.83 32.7949 212.732 32.873 212.634 32.9707C212.322 33.2637 211.931 33.5176 211.462 33.7324C211.228 33.791 211.082 33.8301 211.023 33.8496C210.964 33.8887 210.916 33.9082 210.877 33.9082C210.759 33.9473 210.642 33.9668 210.525 33.9668C210.408 33.9668 210.291 33.9766 210.173 33.9961C210.115 33.9961 210.056 34.0059 209.998 34.0254C209.939 34.0449 209.871 34.0547 209.793 34.0547C209.636 34.0352 209.47 33.9961 209.295 33.9375C209.138 33.8789 208.982 33.8301 208.826 33.791C208.748 33.7715 208.679 33.752 208.621 33.7324C208.562 33.7129 208.494 33.6934 208.416 33.6738C208.279 33.5957 208.152 33.5273 208.035 33.4688C207.918 33.4102 207.8 33.3418 207.683 33.2637C207.39 33.1855 207.214 33.0781 207.156 32.9414C207.097 32.8047 207.019 32.6777 206.921 32.5605C206.804 32.1895 206.707 31.8574 206.629 31.5645C206.57 31.2715 206.492 30.9395 206.394 30.5684C206.355 30.4316 206.316 30.3145 206.277 30.2168C206.257 30.0996 206.257 29.9727 206.277 29.8359C206.296 29.7383 206.336 29.6309 206.394 29.5137C206.453 29.3965 206.511 29.2793 206.57 29.1621C206.726 28.8887 206.843 28.6152 206.921 28.3418C207.019 28.0488 207.146 27.7656 207.302 27.4922C207.341 27.4531 207.371 27.4043 207.39 27.3457C207.429 27.2871 207.468 27.2383 207.507 27.1992C207.566 27.082 207.615 26.9648 207.654 26.8477C207.712 26.7305 207.761 26.623 207.8 26.5254C207.957 26.1934 208.113 25.8711 208.269 25.5586C208.445 25.2266 208.63 24.9043 208.826 24.5918C209.041 24.2207 209.216 23.918 209.353 23.6836C209.509 23.4297 209.695 23.1953 209.91 22.9805C210.027 22.6484 210.173 22.3555 210.349 22.1016C210.525 21.8281 210.671 21.5254 210.789 21.1934C210.906 21.0371 211.004 20.8516 211.082 20.6367C211.179 20.4219 211.277 20.2168 211.375 20.0215C211.531 19.6309 211.687 19.2988 211.843 19.0254C211.882 18.9668 211.921 18.9082 211.961 18.8496C212 18.791 212.029 18.7227 212.048 18.6445C212.107 18.4688 212.175 18.293 212.254 18.1172C212.332 17.9414 212.41 17.7754 212.488 17.6191C212.644 17.2871 212.791 16.9941 212.927 16.7402C213.084 16.4668 213.24 16.1836 213.396 15.8906ZM219.841 13.4883C219.568 13.5078 219.304 13.5664 219.05 13.6641C218.816 13.7422 218.572 13.8301 218.318 13.9277C218.142 13.9863 217.976 14.0547 217.82 14.1328C217.664 14.2109 217.507 14.2891 217.351 14.3672C217.175 14.4648 217.009 14.5625 216.853 14.6602C216.716 14.7578 216.57 14.8652 216.414 14.9824C216.394 15.041 216.365 15.0996 216.326 15.1582C216.306 15.1973 216.287 15.2461 216.267 15.3047C216.052 15.5195 215.886 15.7637 215.769 16.0371C215.671 16.291 215.554 16.5352 215.418 16.7695C215.261 17.0234 215.115 17.2773 214.978 17.5312C214.861 17.7656 214.734 18.0098 214.597 18.2637C214.5 18.4785 214.392 18.6738 214.275 18.8496C214.177 19.0059 214.089 19.1816 214.011 19.377C213.757 19.7871 213.591 20.1094 213.513 20.3438C213.455 20.4805 213.377 20.6172 213.279 20.7539C213.201 20.8711 213.142 21.0078 213.103 21.1641C213.045 21.3008 212.976 21.4375 212.898 21.5742C212.839 21.6914 212.791 21.8184 212.752 21.9551C212.712 22.0527 212.683 22.1602 212.664 22.2773C212.664 22.3945 212.644 22.502 212.605 22.5996C212.546 22.7754 212.478 22.9512 212.4 23.127C212.341 23.3027 212.283 23.498 212.224 23.7129C212.127 23.8691 212.019 24.0059 211.902 24.123C211.804 24.2402 211.716 24.3672 211.638 24.5039C211.56 24.7188 211.482 24.875 211.404 24.9727C211.345 25.0508 211.296 25.1387 211.257 25.2363C211.16 25.3926 211.072 25.5586 210.994 25.7344C210.916 25.9102 210.828 26.0859 210.73 26.2617C210.691 26.3203 210.642 26.3789 210.584 26.4375C210.545 26.4961 210.505 26.5645 210.466 26.6426C210.408 26.7598 210.359 26.8867 210.32 27.0234C210.281 27.1406 210.232 27.2773 210.173 27.4336C210.115 27.5703 210.046 27.6973 209.968 27.8145C209.91 27.9316 209.861 28.0488 209.822 28.166C209.744 28.3027 209.675 28.4395 209.617 28.5762C209.558 28.7129 209.509 28.8398 209.47 28.957C209.412 29.0938 209.363 29.2305 209.324 29.3672C209.285 29.5039 209.236 29.6406 209.177 29.7773C209.06 30.0117 208.982 30.1973 208.943 30.334C208.904 30.4512 208.865 30.5684 208.826 30.6855C208.787 30.8027 208.738 30.9297 208.679 31.0664C208.64 31.1836 208.621 31.3008 208.621 31.418C208.543 31.4766 208.494 31.5449 208.474 31.623C208.455 31.7012 208.445 31.7891 208.445 31.8867C208.445 31.9648 208.445 32.0527 208.445 32.1504C208.445 32.2285 208.416 32.2969 208.357 32.3555C208.67 32.3164 208.914 32.2383 209.089 32.1211C209.285 32.0039 209.519 31.9258 209.793 31.8867C209.988 31.7891 210.154 31.6719 210.291 31.5352C210.447 31.3789 210.662 31.291 210.935 31.2715C211.248 31.0762 211.521 30.8711 211.755 30.6562C212.009 30.4219 212.322 30.2363 212.693 30.0996C212.986 29.8457 213.289 29.6113 213.601 29.3965C213.914 29.1621 214.187 28.8789 214.421 28.5469C214.519 28.5078 214.656 28.4199 214.832 28.2832C214.949 28.1465 215.056 28.0098 215.154 27.873C215.271 27.7363 215.379 27.5898 215.476 27.4336C215.671 27.2773 215.837 27.1016 215.974 26.9062C216.111 26.7109 216.287 26.5449 216.502 26.4082C216.58 26.2129 216.687 26.0566 216.824 25.9395C216.961 25.8027 217.087 25.6562 217.205 25.5C217.361 25.3047 217.498 25.0996 217.615 24.8848C217.752 24.6699 217.898 24.4746 218.054 24.2988C218.328 23.791 218.611 23.3027 218.904 22.834C219.216 22.3652 219.48 21.8477 219.695 21.2812C219.89 21.0273 220.056 20.7637 220.193 20.4902C220.349 20.1973 220.476 19.9141 220.574 19.6406C220.711 19.5039 220.798 19.3281 220.837 19.1133C220.896 18.8789 221.023 18.7422 221.218 18.7031C221.375 18.4688 221.453 18.1953 221.453 17.8828C221.472 17.5703 221.502 17.2676 221.541 16.9746C221.56 16.877 221.56 16.7891 221.541 16.7109C221.521 16.6328 221.511 16.5547 221.511 16.4766C221.531 16.3203 221.55 16.1641 221.57 16.0078C221.609 15.832 221.609 15.6855 221.57 15.5684C221.472 15.4121 221.414 15.3145 221.394 15.2754C221.394 15.2168 221.384 15.168 221.365 15.1289C221.326 15.0117 221.306 14.9043 221.306 14.8066C221.267 14.6504 221.238 14.543 221.218 14.4844C221.218 14.4063 221.189 14.3184 221.13 14.2207C221.033 14.084 220.955 13.957 220.896 13.8398C220.857 13.7227 220.789 13.6152 220.691 13.5176C220.535 13.498 220.388 13.4883 220.252 13.4883C220.134 13.4883 219.998 13.4883 219.841 13.4883ZM248.618 22.6875C248.696 22.8047 248.813 22.8828 248.97 22.9219C249.126 22.9414 249.253 22.9902 249.35 23.0684C249.507 23.1074 249.624 23.1367 249.702 23.1562C249.8 23.1562 249.897 23.166 249.995 23.1855C250.132 23.3223 250.21 23.3906 250.229 23.3906C250.249 23.3906 250.249 23.4102 250.229 23.4492C250.483 23.6836 250.718 23.9473 250.932 24.2402C250.971 24.3184 251.001 24.4258 251.02 24.5625C251.059 24.6797 251.098 24.7969 251.137 24.9141C251.177 25.0117 251.196 25.1094 251.196 25.207C251.216 25.3047 251.235 25.4023 251.255 25.5C251.294 25.832 251.274 26.1348 251.196 26.4082C251.118 26.6816 251.059 26.9551 251.02 27.2285C250.923 27.3652 250.874 27.502 250.874 27.6387C250.874 27.7754 250.854 27.9121 250.815 28.0488C250.796 28.1074 250.766 28.166 250.727 28.2246C250.708 28.2832 250.688 28.3516 250.669 28.4297C250.61 28.7031 250.512 28.9473 250.376 29.1621C250.259 29.3574 250.151 29.5625 250.054 29.7773C250.034 29.9141 250.005 30.041 249.966 30.1582C249.927 30.2754 249.897 30.3828 249.878 30.4805C249.858 30.5586 249.809 30.627 249.731 30.6855C249.673 30.7441 249.663 30.8125 249.702 30.8906C249.546 30.9688 249.468 31.0859 249.468 31.2422C249.429 31.2812 249.37 31.3301 249.292 31.3887C249.233 31.4277 249.184 31.4961 249.145 31.5938C248.872 31.7891 248.686 31.9355 248.589 32.0332C248.511 32.1113 248.423 32.1895 248.325 32.2676C248.247 32.3066 248.169 32.3652 248.091 32.4434C248.032 32.5215 247.964 32.5801 247.886 32.6191C247.827 32.6582 247.759 32.6973 247.68 32.7363C247.622 32.7754 247.563 32.8145 247.505 32.8535C247.368 32.9512 247.231 33.0391 247.095 33.1172C246.958 33.2148 246.811 33.3125 246.655 33.4102C246.538 33.4688 246.43 33.5273 246.333 33.5859C246.255 33.6445 246.167 33.6934 246.069 33.7324C245.971 33.7715 245.854 33.8008 245.718 33.8203C245.6 33.8398 245.493 33.8691 245.395 33.9082C245.005 33.9668 244.624 33.9375 244.253 33.8203C243.882 33.7031 243.559 33.5762 243.286 33.4395C243.071 33.3418 242.827 33.2539 242.554 33.1758C242.3 33.0977 242.075 32.9805 241.88 32.8242C241.567 32.5703 241.343 32.248 241.206 31.8574C241.069 31.4473 240.893 31.0664 240.679 30.7148C240.698 30.5781 240.669 30.4707 240.591 30.3926C240.532 30.3145 240.473 30.2266 240.415 30.1289C240.376 30.0312 240.327 29.9531 240.268 29.8945C240.229 29.8164 240.19 29.748 240.151 29.6895C240.073 29.3965 240.024 29.2305 240.005 29.1914C239.77 29.2305 239.614 29.3672 239.536 29.6016C239.458 29.8164 239.36 30.0215 239.243 30.2168C239.223 30.334 239.184 30.4414 239.126 30.5391C239.087 30.6172 239.038 30.7051 238.979 30.8027C238.94 30.9004 238.921 30.9883 238.921 31.0664C238.921 31.1445 238.882 31.2031 238.804 31.2422C238.569 31.2617 238.442 31.3203 238.423 31.418C238.403 31.5156 238.345 31.5547 238.247 31.5352C238.266 31.6719 238.237 31.7988 238.159 31.916C238.081 32.0137 238.061 32.1309 238.1 32.2676C238.081 32.3652 238.042 32.4434 237.983 32.502C237.944 32.5605 237.905 32.6387 237.866 32.7363C237.729 32.7949 237.544 32.8438 237.309 32.8828C237.095 32.9219 236.938 32.873 236.841 32.7363C236.665 32.6973 236.528 32.6484 236.43 32.5898C236.333 32.5312 236.284 32.4434 236.284 32.3262C236.284 32.248 236.313 32.1895 236.372 32.1504C236.411 32.1113 236.411 32.043 236.372 31.9453C236.509 31.6328 236.675 31.3594 236.87 31.125C237.065 30.8711 237.221 30.5879 237.339 30.2754C237.495 30.002 237.641 29.7285 237.778 29.4551C237.934 29.1621 238.091 28.8789 238.247 28.6055C238.403 28.2734 238.569 27.9707 238.745 27.6973C238.921 27.4238 239.077 27.1211 239.214 26.7891C239.253 26.7109 239.272 26.6523 239.272 26.6133C239.292 26.5547 239.282 26.4863 239.243 26.4082C239.438 25.8418 239.673 25.3145 239.946 24.8262C240.22 24.3379 240.483 23.8398 240.737 23.332C240.835 22.9805 240.971 22.6484 241.147 22.3359C241.323 22.0039 241.479 21.6621 241.616 21.3105C241.831 20.9004 242.016 20.5391 242.173 20.2266C242.348 19.9141 242.524 19.5918 242.7 19.2598C242.837 19.1035 242.925 18.9375 242.964 18.7617C243.022 18.5664 243.11 18.4199 243.227 18.3223C243.266 18.2246 243.305 18.1367 243.345 18.0586C243.403 17.9805 243.452 17.8926 243.491 17.7949C243.647 17.4043 243.794 17.1211 243.93 16.9453C244.067 16.75 244.155 16.5449 244.194 16.3301C244.292 16.2324 244.38 16.1055 244.458 15.9492C244.555 15.7734 244.643 15.6074 244.721 15.4512C244.761 15.3535 244.809 15.2363 244.868 15.0996C244.946 14.9629 245.014 14.8164 245.073 14.6602C245.112 14.6016 245.141 14.5527 245.161 14.5137C245.18 14.4746 245.2 14.416 245.22 14.3379C245.317 14.2402 245.386 14.1328 245.425 14.0156C245.464 13.8789 245.522 13.7617 245.6 13.6641C245.464 13.5273 245.298 13.498 245.102 13.5762C244.907 13.6543 244.721 13.7422 244.546 13.8398C244.214 13.9766 243.901 14.123 243.608 14.2793C243.315 14.4355 243.032 14.5918 242.759 14.748C242.466 14.9043 242.173 15.0117 241.88 15.0703C241.606 15.1289 241.333 15.1875 241.059 15.2461C240.903 15.1484 240.796 15.1387 240.737 15.2168C240.698 15.2754 240.63 15.2754 240.532 15.2168C240.493 15.2168 240.444 15.2363 240.386 15.2754C240.346 15.2949 240.278 15.3047 240.18 15.3047C240.122 15.207 240.132 15.1387 240.21 15.0996C240.307 15.041 240.366 14.9727 240.386 14.8945C240.835 14.6211 241.304 14.377 241.792 14.1621C242.28 13.9277 242.749 13.6738 243.198 13.4004C243.686 13.1074 244.116 12.873 244.487 12.6973C244.858 12.5215 245.229 12.3164 245.6 12.082C246.05 11.9258 246.46 11.7598 246.831 11.584C247.221 11.3887 247.671 11.2715 248.179 11.2324C248.393 11.0957 248.637 11.0469 248.911 11.0859C249.184 11.1055 249.438 11.0664 249.673 10.9688C249.829 10.9688 250.014 10.9688 250.229 10.9688C250.464 10.9492 250.679 10.9492 250.874 10.9688C251.323 10.9883 251.665 11.0078 251.899 11.0273C252.153 11.0469 252.387 11.0859 252.602 11.1445C252.68 11.1641 252.759 11.1836 252.837 11.2031C252.934 11.2227 253.022 11.2422 253.1 11.2617C253.315 11.3398 253.53 11.4082 253.745 11.4668C253.979 11.5059 254.175 11.5742 254.331 11.6719C254.624 11.9258 254.839 12.1406 254.975 12.3164C255.132 12.4727 255.239 12.668 255.298 12.9023C255.415 13.1758 255.522 13.4199 255.62 13.6348C255.718 13.8496 255.776 14.084 255.796 14.3379C255.815 14.4355 255.815 14.543 255.796 14.6602C255.796 14.7773 255.796 14.9043 255.796 15.041C255.776 15.2168 255.776 15.4023 255.796 15.5977C255.815 15.7734 255.815 15.9687 255.796 16.1836C255.776 16.418 255.727 16.6523 255.649 16.8867C255.591 17.1211 255.512 17.3457 255.415 17.5605C255.317 17.7754 255.249 17.9902 255.21 18.2051C255.19 18.4199 255.112 18.6152 254.975 18.791C254.858 19.0059 254.761 19.1816 254.682 19.3184C254.624 19.4355 254.555 19.5625 254.477 19.6992C254.438 19.7383 254.389 19.7773 254.331 19.8164C254.292 19.8555 254.262 19.9141 254.243 19.9922C254.028 20.168 253.823 20.3535 253.628 20.5488C253.432 20.7246 253.198 20.8711 252.925 20.9883C252.729 21.1836 252.505 21.3691 252.251 21.5449C252.016 21.7012 251.782 21.8574 251.548 22.0137C251.489 22.0527 251.421 22.1016 251.343 22.1602C251.284 22.1992 251.196 22.2285 251.079 22.248C250.923 22.2871 250.786 22.3164 250.669 22.3359C250.571 22.3555 250.434 22.3848 250.259 22.4238C250.024 22.4434 249.79 22.4727 249.555 22.5117C249.321 22.5508 249.096 22.5898 248.882 22.6289L248.618 22.6875ZM246.889 21.5156C247.163 21.3984 247.436 21.2812 247.71 21.1641C247.983 21.0273 248.257 20.9102 248.53 20.8125C248.686 20.7734 248.833 20.7344 248.97 20.6953C249.106 20.6562 249.233 20.6074 249.35 20.5488C249.565 20.4121 249.712 20.3242 249.79 20.2852C249.868 20.2461 249.946 20.1973 250.024 20.1387C250.141 20.0801 250.249 20.002 250.346 19.9043C250.464 19.8066 250.571 19.7285 250.669 19.6699C250.786 19.5723 250.893 19.4941 250.991 19.4355C251.108 19.3574 251.225 19.2695 251.343 19.1719C251.421 19.1133 251.499 19.0645 251.577 19.0254C251.675 18.9668 251.762 18.9082 251.841 18.8496C251.977 18.7129 252.085 18.5664 252.163 18.4102C252.261 18.2539 252.378 18.1172 252.514 18C252.612 17.8047 252.7 17.6094 252.778 17.4141C252.856 17.2188 252.925 17.0137 252.983 16.7988C253.042 16.623 253.1 16.457 253.159 16.3008C253.218 16.125 253.266 15.959 253.305 15.8027C253.325 15.6074 253.345 15.4707 253.364 15.3926C253.403 15.3145 253.413 15.2363 253.393 15.1582C253.393 15.0801 253.374 15.002 253.335 14.9238C253.296 14.8457 253.257 14.7773 253.218 14.7188C253.12 14.5039 253.003 14.2988 252.866 14.1035C252.729 13.9082 252.602 13.7129 252.485 13.5176C252.309 13.3809 252.095 13.2539 251.841 13.1367C251.606 13 251.343 12.9805 251.05 13.0781C251.011 13.0391 250.942 13.0195 250.845 13.0195C250.747 13 250.679 13.0098 250.639 13.0488C250.503 13.0293 250.356 13.0293 250.2 13.0488C250.063 13.0488 249.917 13.0586 249.761 13.0781C249.604 13.0977 249.458 13.127 249.321 13.166C249.184 13.1855 249.087 13.2051 249.028 13.2246C248.989 13.2637 248.95 13.3223 248.911 13.4004C248.872 13.459 248.833 13.5176 248.794 13.5762C248.696 13.752 248.598 13.8789 248.501 13.957C248.423 14.0156 248.335 14.123 248.237 14.2793C248.159 14.377 248.091 14.4648 248.032 14.543C247.973 14.6211 247.925 14.709 247.886 14.8066C247.788 14.8457 247.72 14.8945 247.68 14.9531C247.661 15.0117 247.632 15.0703 247.593 15.1289C247.495 15.168 247.436 15.2461 247.417 15.3633C247.397 15.4805 247.348 15.5586 247.27 15.5977C247.114 15.832 246.997 16.0371 246.919 16.2129C246.86 16.3691 246.782 16.584 246.684 16.8574C246.528 17.1504 246.382 17.4336 246.245 17.707C246.128 17.9609 246.001 18.2246 245.864 18.498C245.825 18.6152 245.786 18.7227 245.747 18.8203C245.708 18.918 245.669 19.0156 245.63 19.1133C245.571 19.2109 245.503 19.3086 245.425 19.4062C245.346 19.4844 245.268 19.5723 245.19 19.6699C244.975 20.002 244.79 20.334 244.634 20.666C244.497 20.998 244.331 21.3203 244.136 21.6328C243.706 22.2773 243.315 22.9219 242.964 23.5664C242.866 23.6445 242.817 23.7324 242.817 23.8301C242.837 23.9277 242.788 23.9961 242.671 24.0352C242.514 24.25 242.387 24.416 242.29 24.5332C242.251 24.6113 242.212 24.6895 242.173 24.7676C242.134 24.8457 242.095 24.9336 242.055 25.0312C241.997 25.1289 241.929 25.2363 241.85 25.3535C241.792 25.4512 241.743 25.5488 241.704 25.6465C241.606 25.8613 241.499 26.0762 241.382 26.291C241.264 26.4863 241.157 26.6719 241.059 26.8477C241.02 26.9258 240.981 26.9941 240.942 27.0527C240.903 27.1113 240.864 27.1699 240.825 27.2285C240.786 27.3848 240.757 27.4727 240.737 27.4922C240.718 27.4922 240.698 27.5117 240.679 27.5508C240.659 27.6484 240.669 27.7363 240.708 27.8145C240.747 27.873 240.786 27.9414 240.825 28.0195C240.845 28.0781 240.854 28.1367 240.854 28.1953C240.854 28.2344 240.864 28.2832 240.884 28.3418C240.962 28.5566 241.02 28.7129 241.059 28.8105C241.118 28.8887 241.186 29.0156 241.264 29.1914C241.304 29.2695 241.333 29.3379 241.352 29.3965C241.372 29.4551 241.401 29.5137 241.44 29.5723C241.479 29.6504 241.509 29.7188 241.528 29.7773C241.567 29.8359 241.606 29.9141 241.645 30.0117C241.762 30.2461 241.909 30.4512 242.085 30.627C242.261 30.8027 242.427 30.998 242.583 31.2129C242.759 31.3301 242.954 31.3789 243.169 31.3594C243.403 31.3398 243.628 31.3398 243.843 31.3594C244.038 31.2812 244.233 31.2715 244.429 31.3301C244.643 31.3691 244.848 31.3887 245.044 31.3887C245.102 31.3691 245.151 31.3496 245.19 31.3301C245.249 31.291 245.307 31.291 245.366 31.3301C245.483 31.2715 245.6 31.2129 245.718 31.1543C245.854 31.0957 245.981 31.0371 246.098 30.9785C246.274 30.8223 246.45 30.6855 246.626 30.5684C246.802 30.4316 246.948 30.2656 247.065 30.0703C247.104 30.0312 247.134 29.9922 247.153 29.9531C247.192 29.8945 247.231 29.8359 247.27 29.7773C247.348 29.6797 247.407 29.582 247.446 29.4844C247.505 29.3672 247.554 29.25 247.593 29.1328C247.807 28.918 247.973 28.7129 248.091 28.5176C248.208 28.3027 248.345 28.1074 248.501 27.9316C248.54 27.7754 248.618 27.6387 248.735 27.5215C248.852 27.4043 248.921 27.248 248.94 27.0527C248.94 26.6816 248.911 26.4082 248.852 26.2324C248.794 26.0371 248.735 25.8516 248.677 25.6758C248.637 25.5977 248.618 25.5195 248.618 25.4414C248.618 25.3438 248.598 25.2559 248.559 25.1777C248.403 24.9434 248.276 24.748 248.179 24.5918C248.1 24.416 248.003 24.2793 247.886 24.1816C247.807 24.1426 247.72 24.123 247.622 24.123C247.544 24.123 247.466 24.1035 247.387 24.0645C247.173 23.9863 246.958 23.9082 246.743 23.8301C246.528 23.752 246.294 23.6934 246.04 23.6543C245.942 23.5957 245.854 23.5371 245.776 23.4785C245.698 23.4199 245.61 23.3711 245.512 23.332C245.434 23.2148 245.346 23.1465 245.249 23.127C245.249 23.0098 245.2 22.9316 245.102 22.8926C245.005 22.8535 244.936 22.7852 244.897 22.6875C244.858 22.5898 244.839 22.4824 244.839 22.3652C244.839 22.248 244.809 22.1406 244.751 22.043C244.848 21.9844 244.966 21.9648 245.102 21.9844C245.239 21.9844 245.356 21.9355 245.454 21.8379C245.61 21.8379 245.747 21.8184 245.864 21.7793C245.981 21.7207 246.118 21.6719 246.274 21.6328C246.391 21.6133 246.499 21.623 246.596 21.6621C246.694 21.6816 246.792 21.6621 246.889 21.6035V21.5156Z" fill="#FF8A00"/>
<g clip-path="url(#clip0)">
<path d="M320.269 48.334H312.772V38.2946C315.568 38.0896 318.184 36.8409 320.103 34.7962C321.983 32.8301 322.95 30.1643 322.768 27.4502C322.711 26.6302 322.574 25.5739 322.428 24.4513C322.162 22.7048 321.998 20.9445 321.935 19.1792C322.069 17.5608 322.34 15.9567 322.743 14.3838C322.805 14.1349 322.75 13.8709 322.592 13.6688C322.434 13.4666 322.192 13.3483 321.935 13.3483H308.162L308.354 13.2368L310.52 11.9873C310.917 11.7567 311.053 11.2471 310.823 10.8493C309.157 7.97203 305.942 6.35851 302.639 6.74328C302.726 6.45369 302.772 6.15352 302.776 5.85131C302.776 4.01124 301.285 2.51933 299.444 2.51933C299.072 2.5234 298.703 2.59051 298.354 2.71741L296.805 0.3917C296.645 0.134643 296.357 -0.0150356 296.054 0.00123379C295.751 0.0175032 295.481 0.19728 295.349 0.470607C295.217 0.743933 295.244 1.06729 295.419 1.31499L296.969 3.64233C296.263 4.41757 295.969 5.4824 296.175 6.51022C296.381 7.53804 297.064 8.40642 298.013 8.85017C295.116 11.4862 294.443 15.7834 296.396 19.1792C296.506 19.3704 296.688 19.5103 296.901 19.5672C297.115 19.6246 297.342 19.5945 297.533 19.4843L301.704 17.076C301.832 17.7467 301.913 18.4259 301.943 19.1084C301.937 19.1316 301.931 19.1552 301.926 19.1792C301.93 19.204 301.935 19.2284 301.942 19.2524C301.875 20.9945 301.712 22.7316 301.453 24.4554C301.307 25.5739 301.17 26.6302 301.113 27.4543C300.931 30.1684 301.898 32.8341 303.778 34.8003C305.696 36.845 308.313 38.0941 311.109 38.299V48.334H303.609C303.149 48.334 302.776 48.707 302.776 49.167C302.776 49.627 303.149 50 303.609 50H320.269C320.729 50 321.102 49.627 321.102 49.167C321.102 48.707 320.729 48.334 320.269 48.334ZM306.583 12.3355L304.829 13.3483H301.943C301.686 13.3483 301.444 13.4666 301.287 13.6688C301.129 13.8709 301.073 14.1349 301.135 14.3838C301.135 14.3944 301.234 14.7853 301.359 15.3506L299.658 16.3329C299.03 14.455 299.811 12.3945 301.525 11.4045C303.24 10.4145 305.415 10.7683 306.727 12.2513L306.583 12.3355ZM299.444 4.18532C300.364 4.18532 301.11 4.93127 301.11 5.85131C301.11 6.77135 300.364 7.5173 299.444 7.5173C298.524 7.5173 297.778 6.77135 297.778 5.85131C297.778 4.93127 298.524 4.18532 299.444 4.18532ZM297.467 17.5966C296.163 14.5009 297.367 10.9184 300.276 9.23901C303.185 7.55919 306.889 8.30718 308.919 10.9843L308.185 11.4081C306.395 9.13082 303.203 8.51543 300.695 9.96341C298.186 11.4118 297.123 14.4839 298.201 17.1724L297.467 17.5966ZM305.275 15.0142H320.886C320.635 16.1137 320.445 17.2261 320.317 18.3462H303.561C303.496 17.6658 303.37 16.8987 303.235 16.1922L305.275 15.0142ZM302.776 27.5681C302.831 26.797 302.965 25.7639 303.109 24.6693C303.307 23.1441 303.517 21.4634 303.583 20.0122H320.299C320.366 21.4634 320.576 23.1441 320.773 24.6693C320.916 25.7639 321.05 26.797 321.106 27.5681C321.252 29.821 320.445 32.0312 318.882 33.6606C317.085 35.5816 314.571 36.6721 311.941 36.6721C309.31 36.6721 306.797 35.5816 304.999 33.6606C303.437 32.0312 302.631 29.821 302.776 27.5681Z" fill="url(#paint0_linear)"/>
<path d="M314.804 24.0356C314.85 24.0669 314.901 24.0922 314.955 24.1105C315.004 24.1361 315.058 24.1528 315.113 24.1605C315.165 24.1703 315.218 24.1759 315.271 24.1772C315.324 24.1759 315.377 24.1703 315.428 24.1605C315.484 24.1528 315.538 24.1357 315.588 24.1105C315.639 24.0938 315.687 24.0686 315.729 24.0356C315.774 24.0063 315.816 23.9726 315.854 23.9356C316.014 23.7802 316.104 23.5671 316.104 23.3442C316.104 23.1213 316.014 22.9082 315.854 22.7528C315.816 22.7158 315.774 22.682 315.729 22.6527C315.687 22.6198 315.639 22.5946 315.588 22.5779C315.538 22.5527 315.484 22.5356 315.428 22.5279C315.325 22.5026 315.217 22.5026 315.113 22.5279C315.058 22.5356 315.004 22.5523 314.955 22.5779C314.901 22.5962 314.85 22.6214 314.804 22.6527C314.761 22.6836 314.719 22.717 314.68 22.7528C314.358 23.0814 314.358 23.6069 314.68 23.9356L314.804 24.0356Z" fill="url(#paint1_linear)"/>
<path d="M316.171 29.4916C316.211 29.5937 316.27 29.6868 316.346 29.7665L316.47 29.8666C316.516 29.8979 316.567 29.9231 316.621 29.9414C316.668 29.9654 316.718 29.9825 316.771 29.9915C316.826 30.0008 316.881 30.0065 316.937 30.0081C317.275 30.0102 317.582 29.8072 317.711 29.4944C317.841 29.1821 317.769 28.8221 317.528 28.5837C317.329 28.3873 317.045 28.3031 316.771 28.3588C316.718 28.3678 316.668 28.3848 316.621 28.4088C316.567 28.4272 316.516 28.4524 316.47 28.4837C316.427 28.5146 316.385 28.548 316.346 28.5837C316.269 28.6618 316.209 28.7558 316.171 28.8587C316.082 29.0604 316.082 29.2898 316.171 29.4916Z" fill="url(#paint2_linear)"/>
<path d="M308.849 31.0827C308.525 31.4085 308.527 31.9348 308.852 32.259C309.177 32.5832 309.703 32.5832 310.028 32.259C310.354 31.9348 310.355 31.4085 310.031 31.0827C309.698 30.7744 309.183 30.7744 308.849 31.0827Z" fill="url(#paint3_linear)"/>
<path d="M310.856 26.0848C310.82 26.0453 310.778 26.0116 310.731 25.9847C310.689 25.9518 310.641 25.9266 310.59 25.9099C310.54 25.8847 310.486 25.8676 310.43 25.8598C310.159 25.8053 309.878 25.8895 309.681 26.0848C309.607 26.1657 309.548 26.2589 309.506 26.3597C309.464 26.4598 309.441 26.5676 309.44 26.6762C309.438 26.8978 309.525 27.111 309.682 27.2676C309.838 27.4246 310.051 27.5116 310.273 27.5092C310.326 27.5079 310.379 27.5022 310.43 27.4925C310.486 27.4847 310.54 27.4677 310.59 27.4424C310.641 27.4258 310.689 27.4006 310.731 27.3676C310.776 27.3383 310.818 27.3046 310.856 27.2676C311.014 27.111 311.104 26.8986 311.106 26.6762C311.102 26.4541 311.013 26.2426 310.856 26.0848Z" fill="url(#paint4_linear)"/>
<path d="M307.532 22.7528C307.199 22.4445 306.684 22.4445 306.35 22.7528C306.274 22.8325 306.215 22.9256 306.175 23.0277C306.132 23.1278 306.11 23.2352 306.108 23.3442C306.106 23.6826 306.309 23.9884 306.622 24.1182C306.934 24.2479 307.294 24.1759 307.532 23.9356C307.608 23.8558 307.667 23.7627 307.707 23.6606C307.796 23.4589 307.796 23.2295 307.707 23.0277C307.667 22.9256 307.608 22.8325 307.532 22.7528Z" fill="url(#paint5_linear)"/>
</g>
<defs>
<linearGradient id="paint0_linear" x1="309.035" y1="51.0329" x2="309.035" y2="-1.58233" gradientUnits="userSpaceOnUse">
<stop stop-color="#E93E3A"/>
<stop offset="0.354" stop-color="#ED683C"/>
<stop offset="0.709" stop-color="#F3903F"/>
<stop offset="1" stop-color="#FDC70C"/>
</linearGradient>
<linearGradient id="paint1_linear" x1="315.271" y1="51.0329" x2="315.271" y2="-1.58236" gradientUnits="userSpaceOnUse">
<stop stop-color="#E93E3A"/>
<stop offset="0.354" stop-color="#ED683C"/>
<stop offset="0.709" stop-color="#F3903F"/>
<stop offset="1" stop-color="#FDC70C"/>
</linearGradient>
<linearGradient id="paint2_linear" x1="316.937" y1="51.033" x2="316.937" y2="-1.58249" gradientUnits="userSpaceOnUse">
<stop stop-color="#E93E3A"/>
<stop offset="0.354" stop-color="#ED683C"/>
<stop offset="0.709" stop-color="#F3903F"/>
<stop offset="1" stop-color="#FDC70C"/>
</linearGradient>
<linearGradient id="paint3_linear" x1="309.44" y1="51.0329" x2="309.44" y2="-1.58232" gradientUnits="userSpaceOnUse">
<stop stop-color="#E93E3A"/>
<stop offset="0.354" stop-color="#ED683C"/>
<stop offset="0.709" stop-color="#F3903F"/>
<stop offset="1" stop-color="#FDC70C"/>
</linearGradient>
<linearGradient id="paint4_linear" x1="310.273" y1="51.0328" x2="310.273" y2="-1.58225" gradientUnits="userSpaceOnUse">
<stop stop-color="#E93E3A"/>
<stop offset="0.354" stop-color="#ED683C"/>
<stop offset="0.709" stop-color="#F3903F"/>
<stop offset="1" stop-color="#FDC70C"/>
</linearGradient>
<linearGradient id="paint5_linear" x1="306.941" y1="51.0329" x2="306.941" y2="-1.58236" gradientUnits="userSpaceOnUse">
<stop stop-color="#E93E3A"/>
<stop offset="0.354" stop-color="#ED683C"/>
<stop offset="0.709" stop-color="#F3903F"/>
<stop offset="1" stop-color="#FDC70C"/>
</linearGradient>
<clipPath id="clip0">
<rect x="284" width="50" height="50" fill="white"/>
</clipPath>
</defs>
</svg>
